<?xml version="1.0" standalone="no"?>
<!DOCTYPE svg PUBLIC "-//W3C//DTD SVG 20010904//EN"
 "http://www.w3.org/TR/2001/REC-SVG-20010904/DTD/svg10.dtd">
<svg version="1.0" xmlns="http://www.w3.org/2000/svg"
 width="1920.000000pt" height="1080.000000pt" viewBox="0 0 1920.000000 1080.000000"
 preserveAspectRatio="xMidYMid meet">

<g transform="translate(0.000000,1080.000000) scale(0.100000,-0.100000)"
fill="#000000" stroke="none">
<path d="M14650 9340 c0 -13 -7 -20 -20 -20 -15 0 -20 -7 -20 -25 0 -23 -4
-25 -45 -25 -38 0 -45 -3 -45 -20 0 -15 -7 -20 -25 -20 -24 0 -25 -2 -25 -70
0 -63 -2 -70 -20 -70 -13 0 -20 -7 -20 -20 0 -15 -7 -20 -25 -20 -20 0 -25 -5
-25 -25 0 -24 -2 -25 -65 -25 -58 0 -65 -2 -65 -20 0 -15 -7 -20 -25 -20 -20
0 -25 -5 -25 -25 0 -18 -5 -25 -20 -25 -13 0 -20 -7 -20 -20 0 -15 7 -20 25
-20 18 0 25 5 25 20 0 13 7 20 19 20 13 0 21 8 23 23 3 20 9 22 71 25 59 3 67
5 67 22 0 13 7 20 19 20 13 0 21 8 23 23 2 14 11 23 26 25 14 2 22 10 22 23 0
12 7 19 20 19 17 0 19 8 22 68 l3 67 43 3 c34 3 42 7 42 23 0 14 7 19 25 19
20 0 25 5 25 25 l0 26 88 -3 c82 -3 87 -4 90 -25 2 -15 10 -23 23 -23 16 0 19
-7 19 -45 0 -41 2 -45 25 -45 18 0 25 -5 25 -20 0 -13 7 -20 20 -20 13 0 20 7
20 20 0 15 7 20 25 20 18 0 25 -5 25 -20 0 -13 7 -20 20 -20 18 0 20 -7 20
-70 0 -68 1 -70 25 -70 23 0 25 -4 25 -45 0 -38 3 -45 20 -45 13 0 20 -7 20
-20 0 -15 7 -20 25 -20 18 0 25 5 25 20 0 13 7 20 19 20 13 0 21 8 23 23 2 14
10 22 23 22 18 0 20 -8 23 -67 3 -60 5 -68 22 -68 13 0 20 -7 20 -20 0 -15 7
-20 25 -20 18 0 25 5 25 20 0 13 7 20 20 20 18 0 20 -7 20 -70 0 -63 -2 -70
-20 -70 -13 0 -20 -7 -20 -20 0 -15 -7 -20 -25 -20 -33 0 -35 -37 -2 -42 14
-2 23 -11 25 -25 2 -15 10 -23 23 -23 14 0 19 -7 19 -25 0 -20 5 -25 25 -25
20 0 25 5 25 25 0 18 -5 25 -20 25 -15 0 -20 7 -20 25 0 20 -5 25 -25 25 -18
0 -25 5 -25 20 0 15 7 20 25 20 18 0 25 5 25 20 0 13 7 20 20 20 18 0 20 7 20
70 0 63 -2 70 -20 70 -15 0 -20 7 -20 25 0 21 -5 25 -30 25 -25 0 -30 -4 -30
-25 0 -16 -6 -25 -15 -25 -12 0 -15 14 -15 70 0 68 -1 70 -25 70 -18 0 -25 5
-25 20 0 15 -7 20 -25 20 -18 0 -25 -5 -25 -20 0 -15 -7 -20 -25 -20 -20 0
-25 -5 -25 -25 0 -16 -6 -25 -15 -25 -11 0 -15 12 -15 45 0 41 -2 45 -25 45
-24 0 -25 2 -25 70 0 63 -2 70 -20 70 -13 0 -20 7 -20 20 0 15 -7 20 -25 20
-20 0 -25 5 -25 25 0 20 -5 25 -25 25 -20 0 -25 -5 -25 -25 0 -18 -5 -25 -20
-25 -17 0 -20 7 -20 45 0 38 -3 45 -20 45 -15 0 -20 7 -20 25 0 20 -5 25 -25
25 -18 0 -25 5 -25 20 0 19 -7 20 -95 20 -88 0 -95 -1 -95 -20z"/>
<path d="M14070 8800 c0 -15 -7 -20 -25 -20 -23 0 -25 -3 -25 -50 0 -47 2 -50
25 -50 18 0 25 -5 25 -20 0 -13 7 -20 20 -20 15 0 20 -7 20 -25 0 -20 5 -25
25 -25 18 0 25 -5 25 -20 0 -13 7 -20 20 -20 17 0 20 -7 20 -45 0 -41 2 -45
25 -45 20 0 25 -5 25 -25 0 -24 2 -25 65 -25 58 0 65 -2 65 -20 0 -15 7 -20
25 -20 20 0 25 -5 25 -25 0 -23 4 -25 45 -25 38 0 45 -3 45 -20 0 -18 7 -20
70 -20 63 0 70 2 70 20 0 15 7 20 25 20 20 0 25 5 25 25 0 16 6 25 15 25 9 0
15 -9 15 -25 0 -23 4 -25 45 -25 38 0 45 -3 45 -20 0 -19 7 -20 95 -20 88 0
95 1 95 20 0 17 7 20 45 20 41 0 45 2 45 25 0 18 5 25 20 25 15 0 20 -7 20
-25 0 -23 3 -25 50 -25 47 0 50 2 50 25 0 23 4 25 45 25 38 0 45 3 45 20 0 17
7 20 45 20 41 0 45 2 45 25 0 23 -3 25 -50 25 -47 0 -50 -2 -50 -25 0 -23 -4
-25 -45 -25 -38 0 -45 -3 -45 -20 0 -17 -7 -20 -45 -20 -38 0 -45 3 -45 20 0
13 -7 20 -20 20 -13 0 -20 -7 -20 -20 0 -17 -7 -20 -44 -20 -39 0 -45 -3 -48
-22 -3 -22 -8 -23 -90 -26 l-88 -3 0 26 c0 23 -3 25 -45 25 -38 0 -45 3 -45
20 0 15 -7 20 -25 20 -18 0 -25 -5 -25 -20 0 -13 -7 -20 -19 -20 -13 0 -21 -8
-23 -22 -3 -21 -8 -23 -68 -23 -60 0 -65 2 -68 23 -3 19 -9 22 -48 22 -37 0
-44 3 -44 20 0 13 -7 20 -20 20 -15 0 -20 7 -20 25 0 24 -2 25 -70 25 l-70 0
0 45 c0 38 -3 45 -20 45 -13 0 -20 7 -20 19 0 13 -8 21 -22 23 -15 2 -24 11
-26 26 -2 14 -10 22 -23 22 -12 0 -19 7 -19 19 0 13 -8 21 -22 23 -20 3 -23 9
-23 48 l0 45 43 3 c34 3 42 7 42 23 0 16 -7 19 -45 19 -38 0 -45 -3 -45 -20z"/>
<path d="M6740 8620 c0 -15 -7 -20 -25 -20 -20 0 -25 -5 -25 -25 0 -23 -4 -25
-45 -25 -38 0 -45 -3 -45 -20 0 -13 -7 -20 -20 -20 -18 0 -20 -7 -20 -70 0
-68 -1 -70 -25 -70 -18 0 -25 -5 -25 -20 0 -13 -7 -20 -20 -20 -15 0 -20 -7
-20 -25 0 -24 -2 -25 -65 -25 -58 0 -65 -2 -65 -20 0 -15 -7 -20 -25 -20 -20
0 -25 -5 -25 -25 0 -18 -5 -25 -20 -25 -13 0 -20 -7 -20 -20 0 -13 7 -20 20
-20 13 0 20 7 20 20 0 15 7 20 25 20 20 0 25 5 25 25 0 24 2 25 65 25 58 0 65
2 65 20 0 15 7 20 25 20 20 0 25 5 25 25 0 18 5 25 20 25 13 0 20 7 20 20 0
15 7 20 25 20 24 0 25 2 25 70 l0 70 45 0 c38 0 45 3 45 20 0 13 7 20 19 20
13 0 21 8 23 23 3 21 8 22 91 25 l87 3 0 -26 c0 -20 5 -25 25 -25 23 0 25 -4
25 -45 0 -38 3 -45 20 -45 13 0 20 -7 20 -20 0 -15 7 -20 25 -20 18 0 25 5 25
20 0 13 7 20 20 20 13 0 20 -7 20 -19 0 -13 8 -21 23 -23 20 -3 22 -9 25 -70
3 -60 5 -68 22 -68 17 0 20 -7 20 -45 0 -41 2 -45 25 -45 18 0 25 -5 25 -20 0
-13 7 -20 20 -20 13 0 20 7 20 20 0 15 7 20 25 20 20 0 25 5 25 25 0 18 5 25
20 25 18 0 20 -7 20 -70 0 -68 1 -70 25 -70 18 0 25 -5 25 -20 0 -13 7 -20 20
-20 13 0 20 7 20 20 0 15 7 20 25 20 26 0 26 -1 23 -67 -3 -62 -5 -68 -25 -71
-15 -2 -23 -10 -23 -23 0 -12 -7 -19 -20 -19 -13 0 -20 -7 -20 -20 0 -13 7
-20 20 -20 15 0 20 -7 20 -25 0 -20 5 -25 25 -25 20 0 25 -5 25 -25 0 -20 5
-25 25 -25 20 0 25 5 25 25 0 20 -5 25 -25 25 -20 0 -25 5 -25 25 0 18 -5 25
-20 25 -13 0 -20 7 -20 20 0 13 7 20 20 20 13 0 20 7 20 20 0 15 7 20 25 20
24 0 25 2 25 70 0 68 -1 70 -25 70 -20 0 -25 5 -25 25 0 20 -5 25 -25 25 -20
0 -25 -5 -25 -25 0 -18 -5 -25 -20 -25 -18 0 -20 7 -20 70 0 63 -2 70 -20 70
-13 0 -20 7 -20 20 0 16 -7 20 -30 20 -23 0 -30 -4 -30 -20 0 -13 -7 -20 -20
-20 -15 0 -20 -7 -20 -25 0 -18 -5 -25 -20 -25 -17 0 -20 7 -20 45 0 38 -3 45
-20 45 -18 0 -20 7 -20 70 0 68 -1 70 -25 70 -18 0 -25 5 -25 20 0 13 -7 20
-20 20 -15 0 -20 7 -20 25 0 21 -5 25 -30 25 -25 0 -30 -4 -30 -25 0 -16 -6
-25 -15 -25 -11 0 -15 12 -15 45 0 41 -2 45 -25 45 -20 0 -25 5 -25 25 0 18
-5 25 -20 25 -13 0 -20 7 -20 20 0 19 -7 20 -95 20 -88 0 -95 -1 -95 -20z"/>
<path d="M6160 8080 c0 -15 -7 -20 -25 -20 -23 0 -25 -3 -25 -50 0 -47 2 -50
25 -50 18 0 25 -5 25 -20 0 -13 7 -20 20 -20 15 0 20 -7 20 -25 0 -20 5 -25
25 -25 18 0 25 -5 25 -20 0 -13 7 -20 20 -20 17 0 20 -7 20 -45 0 -41 2 -45
25 -45 20 0 25 -5 25 -25 0 -24 2 -25 65 -25 58 0 65 -2 65 -20 0 -13 7 -20
20 -20 15 0 20 -7 20 -25 0 -23 4 -25 45 -25 38 0 45 -3 45 -20 0 -18 7 -20
75 -20 68 0 75 2 75 20 0 13 7 20 20 20 15 0 20 7 20 25 0 18 5 25 20 25 15 0
20 -7 20 -25 0 -23 4 -25 45 -25 38 0 45 -3 45 -20 0 -19 7 -20 95 -20 88 0
95 1 95 20 0 17 7 20 45 20 41 0 45 2 45 25 0 16 6 25 15 25 9 0 15 -9 15 -25
0 -23 3 -25 50 -25 47 0 50 2 50 25 0 23 4 25 45 25 38 0 45 3 45 20 0 17 7
20 45 20 41 0 45 2 45 25 0 23 -4 25 -44 25 -39 0 -45 -3 -48 -22 -2 -19 -10
-24 -45 -26 -35 -3 -43 -7 -43 -23 0 -16 -7 -19 -45 -19 -38 0 -45 3 -45 20 0
15 -7 20 -25 20 -18 0 -25 -5 -25 -20 0 -17 -7 -20 -45 -20 -42 0 -45 -2 -45
-25 l0 -26 -87 3 c-83 3 -88 4 -91 26 -3 19 -9 22 -48 22 -37 0 -44 3 -44 20
0 13 -7 20 -20 20 -13 0 -20 -7 -20 -20 0 -15 -7 -20 -25 -20 -20 0 -25 -5
-25 -25 0 -24 -2 -25 -65 -25 -63 0 -65 1 -65 25 0 23 -4 25 -45 25 -38 0 -45
3 -45 19 0 13 -8 21 -22 23 -15 2 -24 11 -26 26 -3 20 -9 22 -68 22 l-64 0 0
45 c0 41 -2 45 -25 45 -18 0 -25 5 -25 20 0 13 -7 20 -20 20 -15 0 -20 7 -20
25 0 20 -5 25 -25 25 -18 0 -25 5 -25 20 0 13 -7 20 -20 20 -17 0 -20 7 -20
50 l0 50 45 0 c38 0 45 3 45 20 0 17 -7 20 -45 20 -38 0 -45 -3 -45 -20z"/>
<path d="M15870 7180 c0 -13 -7 -20 -20 -20 -20 0 -20 -7 -20 -302 0 -167 -3
-320 -6 -340 l-7 -38 367 0 366 0 0 340 0 340 -25 0 c-18 0 -25 5 -25 20 0 20
-7 20 -315 20 -308 0 -315 0 -315 -20z m630 -335 l0 -315 -315 0 -315 0 0 315
0 315 315 0 315 0 0 -315z"/>
<path d="M15912 7088 c2 -17 10 -23 28 -23 18 0 26 6 28 23 3 19 -1 22 -28 22
-27 0 -31 -3 -28 -22z"/>
<path d="M16410 7085 c0 -20 5 -25 25 -25 20 0 25 5 25 25 0 20 -5 25 -25 25
-20 0 -25 -5 -25 -25z"/>
<path d="M16050 7040 c0 -13 -7 -20 -20 -20 -18 0 -20 -7 -20 -65 0 -58 2 -65
20 -65 15 0 20 -7 20 -25 0 -23 4 -25 45 -25 l45 0 0 -45 c0 -38 3 -45 20 -45
15 0 20 -7 20 -25 0 -18 -5 -25 -20 -25 -17 0 -20 -7 -20 -40 0 -33 3 -40 20
-40 15 0 20 -7 20 -25 0 -23 3 -25 50 -25 l50 0 0 45 c0 41 -2 45 -25 45 -18
0 -25 5 -25 20 0 15 7 20 25 20 23 0 25 4 25 45 l0 45 45 0 45 0 0 95 c0 95 0
95 -25 95 -18 0 -25 5 -25 20 0 15 -7 20 -25 20 -18 0 -25 5 -25 20 0 19 -7
20 -110 20 -103 0 -110 -1 -110 -20z m180 -115 c0 -38 -3 -45 -20 -45 -13 0
-20 -7 -20 -20 0 -15 -7 -20 -25 -20 -24 0 -25 2 -25 65 l0 65 45 0 45 0 0
-45z"/>
<path d="M15917 6614 c-4 -4 -7 -16 -7 -26 0 -13 8 -18 31 -18 26 0 30 3 27
23 -3 22 -36 36 -51 21z"/>
<path d="M16410 6595 c0 -20 5 -25 25 -25 20 0 25 5 25 25 0 20 -5 25 -25 25
-20 0 -25 -5 -25 -25z"/>
<path d="M15517 4994 c-4 -4 -7 -16 -7 -26 0 -11 -7 -18 -20 -18 -17 0 -20 -7
-20 -45 0 -38 3 -45 19 -45 13 0 21 -8 23 -22 3 -21 8 -23 68 -23 60 0 65 2
68 23 3 16 10 22 28 22 21 0 25 4 22 23 -2 14 -11 23 -25 25 -15 2 -23 10 -23
23 0 12 -7 19 -19 19 -13 0 -21 8 -23 23 -2 18 -10 23 -43 25 -23 2 -44 0 -48
-4z"/>
<path d="M15247 4814 c-4 -4 -7 -16 -7 -26 0 -11 -7 -18 -20 -18 -18 0 -20 -7
-20 -70 0 -63 2 -70 20 -70 13 0 20 -7 20 -20 0 -18 7 -20 70 -20 63 0 70 2
70 20 0 13 7 20 20 20 18 0 20 7 20 70 0 62 -2 70 -19 70 -13 0 -21 8 -23 23
-3 20 -9 22 -63 25 -34 2 -64 0 -68 -4z"/>
<path d="M15650 4681 c0 -44 3 -51 20 -51 13 0 20 -7 20 -20 0 -17 7 -20 45
-20 l45 0 0 45 c0 38 -3 45 -19 45 -13 0 -21 8 -23 23 -2 18 -10 23 -45 25
l-43 3 0 -50z"/>
<path d="M15200 4525 c0 -24 2 -25 65 -25 63 0 65 1 65 25 0 24 -2 25 -65 25
-63 0 -65 -1 -65 -25z"/>
<path d="M15607 4544 c-4 -4 -7 -16 -7 -26 0 -16 9 -18 71 -18 67 0 70 1 67
23 -3 20 -9 22 -63 25 -34 2 -64 0 -68 -4z"/>
<path d="M11550 4300 c0 -13 -7 -20 -20 -20 -20 0 -20 -7 -20 -340 l0 -340
360 0 360 0 0 340 c0 333 0 340 -20 340 -13 0 -20 7 -20 20 0 20 -7 20 -320
20 -313 0 -320 0 -320 -20z m630 -335 l0 -315 -315 0 -315 0 0 308 c0 170 3
312 7 315 3 4 145 7 315 7 l308 0 0 -315z"/>
<path d="M11600 4205 c0 -20 5 -25 25 -25 20 0 25 5 25 25 0 20 -5 25 -25 25
-20 0 -25 -5 -25 -25z"/>
<path d="M12090 4205 c0 -20 5 -25 25 -25 20 0 25 5 25 25 0 20 -5 25 -25 25
-20 0 -25 -5 -25 -25z"/>
<path d="M11740 4160 c0 -15 -7 -20 -25 -20 -24 0 -25 -2 -25 -65 0 -58 2 -65
20 -65 15 0 20 -7 20 -25 0 -23 3 -25 50 -25 l50 0 0 -45 c0 -38 3 -45 20 -45
15 0 20 -7 20 -25 0 -18 -5 -25 -20 -25 -17 0 -20 -7 -20 -40 0 -33 3 -40 20
-40 15 0 20 -7 20 -25 0 -23 4 -25 45 -25 l45 0 0 45 c0 41 -2 45 -25 45 -18
0 -25 5 -25 20 0 15 7 20 25 20 23 0 25 4 25 45 l0 45 45 0 45 0 0 95 c0 95 0
95 -25 95 -18 0 -25 5 -25 20 0 13 -7 20 -20 20 -13 0 -20 7 -20 20 0 19 -7
20 -110 20 -103 0 -110 -1 -110 -20z m178 -112 c-2 -36 -7 -44 -25 -46 -15 -2
-23 -10 -23 -23 0 -12 -7 -19 -20 -19 -18 0 -20 7 -20 65 l0 65 46 0 45 0 -3
-42z"/>
<path d="M11600 3715 c0 -20 5 -25 25 -25 20 0 25 5 25 25 0 20 -5 25 -25 25
-20 0 -25 -5 -25 -25z"/>
<path d="M12090 3715 c0 -20 5 -25 25 -25 20 0 25 5 25 25 0 20 -5 25 -25 25
-20 0 -25 -5 -25 -25z"/>
<path d="M15150 4301 c0 -16 -11 -19 -77 -25 -43 -3 -212 -6 -377 -6 -164 1
-301 -1 -303 -4 -3 -3 -6 -154 -7 -335 l-1 -331 1803 0 1802 0 0 338 0 337
-332 -3 c-383 -3 -438 0 -438 29 0 18 -11 19 -315 19 -301 0 -315 -1 -315 -19
0 -16 -11 -19 -77 -25 -100 -8 -635 -8 -690 0 -33 5 -43 11 -43 25 0 18 -13
19 -315 19 -301 0 -315 -1 -315 -19z m630 -336 l0 -315 -315 0 -315 0 0 315 0
315 315 0 315 0 0 -315z m1440 0 l0 -315 -315 0 -315 0 0 315 0 315 315 0 315
0 0 -315z"/>
<path d="M15192 4208 c2 -17 10 -23 28 -23 18 0 26 6 28 23 3 19 -1 22 -28 22
-27 0 -31 -3 -28 -22z"/>
<path d="M15690 4205 c0 -20 5 -25 25 -25 20 0 25 5 25 25 0 20 -5 25 -25 25
-20 0 -25 -5 -25 -25z"/>
<path d="M15330 4160 c0 -13 -7 -20 -20 -20 -18 0 -20 -7 -20 -65 0 -58 2 -65
20 -65 15 0 20 -7 20 -25 0 -23 4 -25 45 -25 l45 0 0 -45 c0 -38 3 -45 20 -45
15 0 20 -7 20 -25 0 -18 -5 -25 -20 -25 -17 0 -20 -7 -20 -40 0 -33 3 -40 20
-40 15 0 20 -7 20 -25 0 -23 3 -25 50 -25 l50 0 0 45 c0 41 -2 45 -25 45 -18
0 -25 5 -25 20 0 15 7 20 25 20 23 0 25 4 25 45 l0 45 45 0 45 0 0 95 c0 95 0
95 -25 95 -18 0 -25 5 -25 20 0 13 -7 20 -20 20 -13 0 -20 7 -20 20 0 19 -7
20 -115 20 -108 0 -115 -1 -115 -20z m180 -115 c0 -38 -3 -45 -20 -45 -13 0
-20 -7 -20 -20 0 -13 -7 -20 -20 -20 -18 0 -20 7 -20 65 l0 65 40 0 40 0 0
-45z"/>
<path d="M15197 3734 c-4 -4 -7 -16 -7 -26 0 -13 8 -18 31 -18 26 0 30 3 27
23 -3 22 -36 36 -51 21z"/>
<path d="M15690 3715 c0 -20 5 -25 25 -25 20 0 25 5 25 25 0 20 -5 25 -25 25
-20 0 -25 -5 -25 -25z"/>
<path d="M16630 4205 c0 -20 5 -25 25 -25 20 0 25 5 25 25 0 20 -5 25 -25 25
-20 0 -25 -5 -25 -25z"/>
<path d="M17130 4205 c0 -20 5 -25 25 -25 20 0 25 5 25 25 0 20 -5 25 -25 25
-20 0 -25 -5 -25 -25z"/>
<path d="M16770 4160 c0 -13 -7 -20 -20 -20 -18 0 -20 -7 -20 -65 0 -58 2 -65
20 -65 15 0 20 -7 20 -25 0 -23 4 -25 45 -25 l45 0 0 -45 c0 -38 3 -45 20 -45
15 0 20 -7 20 -25 0 -18 -5 -25 -20 -25 -17 0 -20 -7 -20 -40 0 -33 3 -40 20
-40 15 0 20 -7 20 -25 0 -23 3 -25 50 -25 l50 0 0 45 c0 41 -2 45 -25 45 -18
0 -25 5 -25 20 0 15 7 20 25 20 23 0 25 4 25 45 l0 45 45 0 45 0 0 95 c0 95 0
95 -25 95 -18 0 -25 5 -25 20 0 15 -7 20 -25 20 -18 0 -25 5 -25 20 0 19 -7
20 -110 20 -103 0 -110 -1 -110 -20z m180 -115 c0 -38 -3 -45 -20 -45 -13 0
-20 -7 -20 -20 0 -15 -7 -20 -25 -20 -24 0 -25 2 -25 65 l0 65 45 0 45 0 0
-45z"/>
<path d="M16630 3715 c0 -20 5 -25 25 -25 20 0 25 5 25 25 0 20 -5 25 -25 25
-20 0 -25 -5 -25 -25z"/>
<path d="M17130 3715 c0 -20 5 -25 25 -25 20 0 25 5 25 25 0 20 -5 25 -25 25
-20 0 -25 -5 -25 -25z"/>
<path d="M1660 2995 c0 -24 -2 -25 -70 -25 -63 0 -70 -2 -70 -20 0 -17 -7 -20
-45 -20 -41 0 -45 -2 -45 -25 0 -18 -5 -25 -20 -25 -13 0 -20 -7 -20 -20 0
-15 -7 -20 -25 -20 -20 0 -25 -5 -25 -25 0 -18 -5 -25 -20 -25 -13 0 -20 -7
-20 -20 0 -15 -7 -20 -25 -20 -20 0 -25 -5 -25 -25 0 -18 -5 -25 -20 -25 -13
0 -20 -7 -20 -20 0 -15 -7 -20 -25 -20 -20 0 -25 -5 -25 -25 0 -18 -5 -25 -20
-25 -13 0 -20 -7 -20 -20 0 -15 -7 -20 -25 -20 -20 0 -25 -5 -25 -25 0 -18 -5
-25 -20 -25 -13 0 -20 -7 -20 -20 0 -15 -7 -20 -25 -20 -20 0 -25 -5 -25 -25
0 -18 -5 -25 -20 -25 -13 0 -20 -7 -20 -20 0 -15 -7 -20 -25 -20 -20 0 -25 -5
-25 -25 0 -18 -5 -25 -20 -25 -13 0 -20 -7 -20 -20 0 -15 -7 -20 -25 -20 -20
0 -25 -5 -25 -25 0 -18 -5 -25 -20 -25 -13 0 -20 -7 -20 -20 0 -15 -7 -20 -25
-20 -20 0 -25 -5 -25 -25 0 -18 -5 -25 -20 -25 -13 0 -20 -7 -20 -20 0 -15 -7
-20 -25 -20 -20 0 -25 -5 -25 -25 0 -18 -5 -25 -20 -25 -13 0 -20 -7 -20 -20
0 -15 -7 -20 -25 -20 -20 0 -25 -5 -25 -25 0 -18 -5 -25 -20 -25 -13 0 -20 -7
-20 -20 0 -15 -7 -20 -25 -20 -20 0 -25 -5 -25 -25 0 -18 -5 -25 -20 -25 -13
0 -20 -7 -20 -20 0 -15 -7 -20 -25 -20 -20 0 -25 -5 -25 -25 0 -18 -5 -25 -20
-25 -13 0 -20 -7 -20 -20 0 -15 -7 -20 -25 -20 -20 0 -25 -5 -25 -25 0 -18 -5
-25 -20 -25 -13 0 -20 -7 -20 -20 0 -15 -7 -20 -25 -20 -20 0 -25 -5 -25 -25
0 -18 -5 -25 -20 -25 -13 0 -20 -7 -20 -20 0 -15 -7 -20 -25 -20 -20 0 -25 -5
-25 -25 0 -18 -5 -25 -20 -25 -13 0 -20 -7 -20 -20 0 -13 -7 -20 -20 -20 -17
0 -20 -7 -20 -45 0 -38 3 -45 20 -45 13 0 20 7 20 20 0 19 7 20 180 20 l180 0
0 -25 0 -25 -175 0 -175 0 0 -200 0 -200 -25 0 c-20 0 -25 -5 -25 -25 0 -23 4
-25 45 -25 38 0 45 -3 45 -20 0 -17 7 -20 45 -20 41 0 45 -2 45 -25 0 -24 2
-25 65 -25 58 0 65 -2 65 -20 0 -18 -7 -20 -70 -20 -63 0 -70 2 -70 19 0 16
-8 20 -43 23 -35 2 -43 7 -45 25 -2 13 -10 23 -17 23 -10 0 -15 -18 -17 -67
-3 -62 -5 -68 -25 -71 -19 -3 -23 -10 -23 -43 0 -32 3 -39 20 -39 13 0 20 7
20 20 0 19 7 20 154 20 l154 0 6 31 c3 17 6 58 6 90 0 52 2 59 20 59 17 0 20
7 20 45 0 41 2 45 25 45 23 0 25 -4 25 -45 0 -38 -3 -45 -20 -45 -17 0 -20 -7
-20 -38 0 -22 -3 -73 -6 -115 l-7 -77 -173 0 -174 0 0 -200 0 -200 -25 0 c-20
0 -25 -5 -25 -25 0 -23 4 -25 45 -25 38 0 45 -3 45 -20 0 -17 7 -20 45 -20 41
0 45 -2 45 -25 0 -24 2 -25 65 -25 58 0 65 -2 65 -20 0 -18 -7 -20 -70 -20
-63 0 -70 2 -70 19 0 16 -8 20 -43 23 -35 2 -43 7 -45 26 -2 12 -10 22 -17 22
-10 0 -15 -18 -17 -67 -3 -62 -5 -68 -25 -71 -15 -2 -23 -10 -23 -23 0 -18 9
-19 174 -19 l174 0 6 31 c3 17 6 58 6 90 0 52 2 59 20 59 17 0 20 7 20 45 0
41 2 45 25 45 23 0 25 -4 25 -45 0 -38 -3 -45 -20 -45 -17 0 -20 -7 -20 -52 0
-29 -3 -70 -6 -91 l-7 -37 335 0 336 0 6 31 c3 17 6 58 6 90 0 52 2 59 20 59
17 0 20 7 20 45 0 41 2 45 25 45 23 0 25 -4 25 -45 0 -38 -3 -45 -20 -45 -17
0 -20 -7 -20 -52 0 -29 -3 -70 -6 -90 l-7 -38 335 0 336 0 6 31 c3 17 6 58 6
90 0 52 2 59 20 59 17 0 20 7 20 45 0 41 2 45 25 45 23 0 25 -4 25 -45 0 -38
-3 -45 -20 -45 -17 0 -20 -7 -20 -52 0 -29 -3 -70 -6 -91 l-7 -37 335 0 336 0
6 31 c3 17 6 58 6 90 0 52 2 59 20 59 17 0 20 7 20 45 0 41 2 45 25 45 23 0
25 -4 25 -45 0 -38 -3 -45 -20 -45 -17 0 -20 -7 -20 -52 0 -29 -3 -70 -6 -91
l-7 -37 335 0 335 0 7 38 c3 20 6 61 6 90 0 45 3 52 20 52 19 0 20 -7 20 -90
l0 -90 334 0 333 0 7 37 c3 21 6 62 6 91 0 45 3 52 20 52 19 0 20 -7 20 -90
l0 -90 334 0 333 0 7 38 c3 20 6 61 6 90 0 45 3 52 20 52 19 0 20 -7 20 -90
l0 -90 334 0 333 0 7 37 c3 21 6 62 6 91 0 45 3 52 20 52 19 0 20 -7 20 -90
l0 -90 334 0 333 0 7 37 c3 21 6 62 6 91 0 45 3 52 20 52 19 0 20 -7 20 -90
l0 -90 335 0 335 0 0 90 c0 89 0 90 25 90 25 0 25 -1 25 -90 l0 -90 335 0 335
0 0 90 c0 89 0 90 25 90 25 0 25 -1 25 -90 l0 -90 335 0 335 0 0 90 c0 89 0
90 25 90 25 0 25 -1 25 -90 l0 -90 335 0 335 0 0 90 c0 89 0 90 25 90 25 0 25
-1 25 -90 l0 -90 335 0 335 0 0 90 0 90 26 0 27 0 -5 -90 -5 -90 338 0 339 0
0 90 0 90 26 0 27 0 -5 -90 -5 -90 338 0 339 0 0 90 0 90 26 0 27 0 -5 -90 -5
-90 338 0 339 0 0 90 0 90 26 0 27 0 -5 -90 -5 -90 338 0 339 0 0 90 0 90 26
0 27 0 -5 -90 -5 -90 332 0 332 0 7 31 c3 17 6 58 6 90 0 52 2 59 20 59 17 0
20 7 20 45 0 41 2 45 25 45 23 0 25 -4 25 -45 0 -38 -3 -45 -20 -45 -17 0 -20
-7 -20 -52 0 -29 -3 -70 -6 -91 l-7 -37 335 0 336 0 6 31 c3 17 6 58 6 90 0
52 2 59 20 59 17 0 20 7 20 45 0 41 2 45 25 45 23 0 25 -4 25 -45 0 -38 -3
-45 -20 -45 -17 0 -20 -7 -20 -52 0 -29 -3 -70 -6 -91 l-7 -37 335 0 336 0 6
31 c3 17 6 58 6 90 0 52 2 59 20 59 17 0 20 7 20 45 0 41 2 45 25 45 23 0 25
-4 25 -45 0 -38 -3 -45 -20 -45 -17 0 -20 -7 -20 -52 0 -29 -3 -70 -6 -91 l-7
-37 335 0 336 0 6 31 c3 17 6 58 6 90 0 52 2 59 20 59 17 0 20 7 20 45 0 41 2
45 25 45 23 0 25 -4 25 -45 0 -38 -3 -45 -20 -45 -17 0 -20 -7 -20 -52 0 -29
-3 -70 -6 -90 l-7 -38 335 0 335 0 7 38 c3 20 6 61 6 90 0 45 3 52 20 52 19 0
20 -7 20 -90 l0 -90 334 0 333 0 7 38 c3 20 6 61 6 90 0 45 3 52 20 52 19 0
20 -7 20 -90 l0 -90 334 0 333 0 7 37 c3 21 6 62 6 91 0 45 3 52 20 52 19 0
20 -7 20 -90 l0 -90 334 0 333 0 7 38 c3 20 6 61 6 90 0 45 3 52 20 52 19 0
20 -7 20 -90 l0 -90 334 0 333 0 7 37 c3 21 6 62 6 91 0 45 3 52 20 52 19 0
20 -7 20 -90 l0 -90 45 0 45 0 0 135 c0 128 -1 135 -20 135 -19 0 -20 7 -20
90 0 83 1 90 20 90 13 0 20 7 20 20 0 13 -7 20 -20 20 -19 0 -20 7 -20 95 0
88 1 95 20 95 19 0 20 7 20 155 0 148 -1 155 -20 155 -19 0 -20 7 -20 90 0 83
1 90 20 90 13 0 20 7 20 20 0 13 -7 20 -20 20 -19 0 -20 7 -20 95 0 88 1 95
20 95 13 0 20 7 20 20 0 17 -7 20 -45 20 -41 0 -45 -2 -45 -25 l0 -25 -180 0
-180 0 0 -200 c0 -190 -1 -200 -19 -200 -17 0 -19 10 -23 103 -1 56 -1 148 1
205 3 92 5 102 22 102 12 0 19 7 19 20 0 17 -7 20 -45 20 -41 0 -45 -2 -45
-25 0 -25 -1 -25 -90 -25 l-90 0 0 -90 c0 -83 -1 -90 -20 -90 -19 0 -20 7 -20
95 0 88 1 95 20 95 13 0 20 7 20 20 0 17 -7 20 -45 20 -41 0 -45 -2 -45 -25
l0 -25 -180 0 -180 0 0 -200 c0 -190 -1 -200 -19 -200 -17 0 -19 10 -23 103
-1 56 -1 148 1 205 3 92 5 102 22 102 12 0 19 7 19 20 0 17 -7 20 -45 20 -41
0 -45 -2 -45 -25 0 -25 -1 -25 -90 -25 l-90 0 0 -90 c0 -83 -1 -90 -20 -90
-19 0 -20 7 -20 95 0 88 1 95 20 95 13 0 20 7 20 20 0 17 -7 20 -45 20 -41 0
-45 -2 -45 -25 l0 -25 -180 0 -180 0 0 -200 c0 -190 -1 -200 -19 -200 -17 0
-19 10 -23 103 -1 56 -1 148 1 205 3 92 5 102 22 102 12 0 19 7 19 20 0 17 -7
20 -45 20 -41 0 -45 -2 -45 -25 0 -25 -1 -25 -90 -25 l-90 0 0 -90 c0 -83 -1
-90 -20 -90 -19 0 -20 7 -20 95 0 88 1 95 20 95 13 0 20 7 20 20 0 13 -7 20
-19 20 -13 0 -21 8 -23 23 -2 14 -11 23 -25 25 -19 3 -23 10 -23 43 l0 39 45
0 c41 0 45 2 45 25 0 23 -4 25 -45 25 -38 0 -45 -3 -45 -20 0 -15 -7 -20 -25
-20 -23 0 -25 -3 -25 -50 0 -47 2 -50 25 -50 23 0 25 -4 25 -45 l0 -45 -180 0
-180 0 0 -200 c0 -190 -1 -200 -19 -200 -17 0 -19 10 -23 103 -1 56 -1 148 1
205 3 92 5 102 22 102 12 0 19 7 19 20 0 17 -7 20 -45 20 -41 0 -45 -2 -45
-25 0 -25 -1 -25 -90 -25 l-90 0 0 -90 c0 -83 -1 -90 -20 -90 -19 0 -20 7 -20
95 0 88 1 95 20 95 13 0 20 7 20 20 0 17 -7 20 -45 20 -41 0 -45 -2 -45 -25
l0 -25 -175 0 -175 0 0 -200 0 -200 -24 0 c-24 0 -24 2 -28 99 -1 55 -1 147 0
205 4 96 6 106 23 106 12 0 19 7 19 20 0 17 -7 20 -39 20 -33 0 -40 -4 -43
-22 -3 -22 -8 -23 -90 -26 l-88 -3 0 -52 c0 -87 -10 -127 -31 -127 -17 0 -19
9 -19 95 0 88 1 95 20 95 13 0 20 7 20 20 0 17 -7 20 -45 20 -41 0 -45 -2 -45
-25 l0 -25 -175 0 -175 0 0 -200 0 -200 -24 0 c-24 0 -24 2 -28 99 -1 55 -1
147 0 205 4 96 6 106 23 106 12 0 19 7 19 20 0 17 -7 20 -39 20 -33 0 -40 -4
-43 -22 -3 -22 -8 -23 -90 -26 l-88 -3 0 -52 c0 -87 -10 -127 -31 -127 -17 0
-19 9 -19 95 0 88 1 95 20 95 13 0 20 7 20 20 0 17 -7 20 -45 20 -41 0 -45 -2
-45 -25 l0 -25 -175 0 -175 0 0 -200 0 -200 -24 0 c-24 0 -24 2 -28 99 -1 55
-1 147 0 205 4 96 6 106 23 106 12 0 19 7 19 20 0 17 -7 20 -39 20 -33 0 -40
-4 -43 -22 -3 -22 -8 -23 -90 -26 l-88 -3 0 -52 c0 -87 -10 -127 -31 -127 -17
0 -19 9 -19 95 0 88 1 95 20 95 13 0 20 7 20 20 0 17 -7 20 -45 20 -41 0 -45
-2 -45 -25 l0 -25 -175 0 -175 0 0 -200 0 -200 -24 0 c-24 0 -24 2 -28 99 -1
55 -1 147 0 205 4 96 6 106 23 106 12 0 19 7 19 20 0 13 -7 20 -20 20 -15 0
-20 7 -20 25 0 18 -5 25 -20 25 -13 0 -20 7 -20 20 0 15 -7 20 -25 20 -20 0
-25 5 -25 25 0 18 -5 25 -20 25 -13 0 -20 7 -20 20 0 15 -7 20 -25 20 -20 0
-25 5 -25 25 0 18 -5 25 -20 25 -13 0 -20 7 -20 20 0 15 -7 20 -25 20 -20 0
-25 5 -25 25 0 18 -5 25 -20 25 -13 0 -20 7 -20 20 0 15 -7 20 -25 20 -20 0
-25 5 -25 25 0 18 -5 25 -20 25 -13 0 -20 7 -20 20 0 15 -7 20 -25 20 -20 0
-25 5 -25 25 0 18 -5 25 -20 25 -13 0 -20 7 -20 20 0 15 -7 20 -25 20 -20 0
-25 5 -25 25 0 18 -5 25 -20 25 -13 0 -20 7 -20 20 0 15 -7 20 -25 20 -20 0
-25 5 -25 25 0 18 -5 25 -20 25 -13 0 -20 7 -20 20 0 15 -7 20 -25 20 -20 0
-25 5 -25 25 0 23 -4 25 -45 25 -38 0 -45 3 -45 20 0 18 -7 20 -65 20 -63 0
-65 1 -65 25 l0 25 -140 0 -140 0 0 -25 c0 -24 -2 -25 -65 -25 -58 0 -65 -2
-65 -20 0 -17 -7 -20 -45 -20 -41 0 -45 -2 -45 -25 0 -20 -5 -25 -25 -25 -18
0 -25 -5 -25 -20 0 -13 -7 -20 -20 -20 -15 0 -20 -7 -20 -25 0 -20 -5 -25 -25
-25 -18 0 -25 -5 -25 -20 0 -13 -7 -20 -20 -20 -15 0 -20 -7 -20 -25 0 -20 -5
-25 -25 -25 -18 0 -25 -5 -25 -20 0 -13 -7 -20 -20 -20 -15 0 -20 -7 -20 -25
0 -20 -5 -25 -25 -25 -18 0 -25 -5 -25 -20 0 -13 -7 -20 -20 -20 -15 0 -20 -7
-20 -25 0 -20 -5 -25 -25 -25 -18 0 -25 -5 -25 -20 0 -13 -7 -20 -20 -20 -15
0 -20 -7 -20 -25 0 -20 -5 -25 -25 -25 -18 0 -25 -5 -25 -20 0 -13 -7 -20 -20
-20 -15 0 -20 -7 -20 -25 0 -20 -5 -25 -25 -25 -18 0 -25 -5 -25 -20 0 -13 -7
-20 -20 -20 -15 0 -20 -7 -20 -25 0 -20 -5 -25 -25 -25 -18 0 -25 -5 -25 -20
0 -13 -7 -20 -20 -20 -15 0 -20 -7 -20 -25 0 -18 -5 -25 -19 -25 -13 0 -21 -8
-23 -22 -3 -22 -8 -23 -90 -26 l-88 -3 0 -52 c0 -87 -10 -127 -31 -127 -17 0
-19 9 -19 95 0 88 1 95 20 95 13 0 20 7 20 20 0 17 -7 20 -45 20 -41 0 -45 -2
-45 -25 l0 -25 -175 0 -175 0 0 -200 0 -200 -25 0 -25 0 0 205 c0 198 1 205
20 205 13 0 20 7 20 20 0 17 -7 20 -39 20 -33 0 -40 -4 -43 -22 -3 -22 -8 -23
-90 -26 l-88 -3 0 -52 c0 -87 -10 -127 -31 -127 -17 0 -19 9 -19 95 0 88 1 95
20 95 13 0 20 7 20 20 0 17 -7 20 -45 20 -41 0 -45 -2 -45 -25 l0 -25 -175 0
-175 0 0 -200 0 -200 -25 0 -25 0 0 205 c0 198 1 205 20 205 13 0 20 7 20 20
0 17 -7 20 -39 20 -33 0 -40 -4 -43 -22 -3 -22 -8 -23 -90 -26 l-88 -3 0 -52
c0 -87 -10 -127 -31 -127 -17 0 -19 9 -19 95 0 88 1 95 20 95 13 0 20 7 20 20
0 17 -7 20 -45 20 -41 0 -45 -2 -45 -25 l0 -25 -175 0 -175 0 0 -200 0 -200
-25 0 -25 0 0 205 c0 198 1 205 20 205 13 0 20 7 20 20 0 17 -7 20 -40 20 -36
0 -40 -2 -40 -25 0 -25 -1 -25 -90 -25 l-89 0 -3 -87 c-3 -80 -5 -88 -23 -88
-18 0 -20 8 -23 88 -3 82 -1 89 18 94 11 3 20 14 20 24 0 15 -7 19 -39 19 -33
0 -40 -4 -43 -22 -3 -23 -5 -23 -180 -26 l-178 -2 0 -200 0 -200 -25 0 -25 0
0 205 c0 198 1 205 20 205 13 0 20 7 20 20 0 17 -7 20 -40 20 -36 0 -40 -2
-40 -25 0 -25 -1 -25 -90 -25 l-89 0 -3 -87 c-3 -80 -5 -88 -23 -88 -18 0 -20
8 -23 88 -3 82 -1 89 18 94 27 7 27 43 0 43 -15 0 -20 7 -20 25 0 18 -5 25
-20 25 -17 0 -20 7 -20 40 l0 40 45 0 c41 0 45 2 45 25 0 23 -3 25 -50 25 -43
0 -50 -3 -50 -20 0 -13 -7 -20 -20 -20 -17 0 -20 -7 -20 -50 0 -42 3 -50 19
-50 14 0 21 -10 25 -35 4 -20 4 -40 1 -45 -4 -6 -77 -10 -181 -10 l-174 0 0
-200 0 -200 -25 0 -25 0 0 205 c0 198 1 205 20 205 13 0 20 7 20 20 0 17 -7
20 -40 20 -36 0 -40 -2 -40 -25 0 -25 -1 -25 -90 -25 l-89 0 -3 -87 c-3 -80
-5 -88 -23 -88 -18 0 -20 8 -23 88 -3 82 -1 89 18 94 11 3 20 14 20 24 0 15
-7 19 -39 19 -33 0 -40 -4 -43 -22 -3 -23 -5 -23 -180 -26 l-178 -2 0 -200 0
-200 -25 0 -25 0 0 205 c0 198 1 205 20 205 13 0 20 7 20 20 0 17 -7 20 -40
20 -36 0 -40 -2 -40 -25 0 -25 -1 -25 -90 -25 l-89 0 -3 -87 c-3 -80 -5 -88
-23 -88 -18 0 -20 8 -23 88 -3 82 -1 89 18 94 11 3 20 14 20 24 0 15 -7 19
-39 19 -33 0 -40 -4 -43 -22 -3 -23 -5 -23 -180 -26 l-178 -2 0 -200 0 -200
-25 0 -25 0 0 205 c0 198 1 205 20 205 13 0 20 7 20 20 0 17 -7 20 -40 20 -36
0 -40 -2 -40 -25 0 -25 -1 -25 -90 -25 l-90 0 0 -90 c0 -83 -1 -90 -20 -90
-19 0 -20 7 -20 95 0 88 1 95 20 95 13 0 20 7 20 20 0 17 -7 20 -45 20 -41 0
-45 -2 -45 -25 l0 -25 -180 0 -180 0 0 -200 c0 -190 -1 -200 -19 -200 -17 0
-19 10 -23 103 -1 56 -1 148 1 205 3 92 5 102 22 102 12 0 19 7 19 20 0 17 -7
20 -45 20 -41 0 -45 -2 -45 -25 0 -25 -1 -25 -90 -25 l-90 0 0 -90 c0 -83 -1
-90 -20 -90 -19 0 -20 7 -20 95 0 88 1 95 20 95 13 0 20 7 20 20 0 17 -7 20
-45 20 -41 0 -45 -2 -45 -25 l0 -25 -180 0 -180 0 0 -200 c0 -190 -1 -200 -19
-200 -17 0 -19 10 -23 103 -1 56 -1 148 1 205 3 92 5 102 22 102 12 0 19 7 19
20 0 17 -7 20 -45 20 -41 0 -45 -2 -45 -25 0 -25 -1 -25 -90 -25 l-90 0 0 -90
c0 -83 -1 -90 -20 -90 -19 0 -20 7 -20 95 0 88 1 95 20 95 13 0 20 7 20 20 0
17 -7 20 -45 20 -41 0 -45 -2 -45 -25 l0 -25 -180 0 -180 0 0 -200 c0 -190 -1
-200 -19 -200 -17 0 -19 10 -23 103 -1 56 -1 148 1 205 3 92 5 102 22 102 12
0 19 7 19 20 0 17 -7 20 -45 20 -41 0 -45 -2 -45 -25 0 -25 -1 -25 -90 -25
l-90 0 0 -90 c0 -83 -1 -90 -20 -90 -19 0 -20 7 -20 95 0 88 1 95 20 95 13 0
20 7 20 20 0 17 -7 20 -45 20 -41 0 -45 -2 -45 -25 l0 -25 -180 0 -180 0 0
-200 c0 -190 -1 -200 -19 -200 -17 0 -19 10 -23 102 -1 57 -1 149 1 206 3 92
5 102 22 102 12 0 19 7 19 20 0 13 -7 20 -20 20 -15 0 -20 7 -20 25 0 20 -5
25 -25 25 -18 0 -25 5 -25 20 0 13 -7 20 -20 20 -15 0 -20 7 -20 25 0 20 -5
25 -25 25 -18 0 -25 5 -25 20 0 13 -7 20 -20 20 -15 0 -20 7 -20 25 0 20 -5
25 -25 25 -18 0 -25 5 -25 20 0 13 -7 20 -20 20 -15 0 -20 7 -20 25 0 20 -5
25 -25 25 -18 0 -25 5 -25 20 0 13 -7 20 -20 20 -15 0 -20 7 -20 25 0 18 -5
25 -20 25 -13 0 -20 7 -20 20 0 15 -7 20 -25 20 -20 0 -25 5 -25 25 0 18 -5
25 -20 25 -13 0 -20 7 -20 20 0 15 -7 20 -25 20 -20 0 -25 5 -25 25 0 18 -5
25 -20 25 -13 0 -20 7 -20 20 0 15 -7 20 -25 20 -20 0 -25 5 -25 25 0 18 -5
25 -20 25 -13 0 -20 7 -20 20 0 15 -7 20 -25 20 -20 0 -25 5 -25 25 0 18 -5
25 -20 25 -13 0 -20 7 -20 20 0 15 -7 20 -25 20 -20 0 -25 5 -25 25 0 18 -5
25 -20 25 -13 0 -20 7 -20 20 0 15 -7 20 -25 20 -20 0 -25 5 -25 25 0 18 -5
25 -20 25 -13 0 -20 7 -20 20 0 15 -7 20 -25 20 -20 0 -25 5 -25 25 0 18 -5
25 -20 25 -13 0 -20 7 -20 20 0 15 -7 20 -25 20 -20 0 -25 5 -25 25 0 18 -5
25 -20 25 -13 0 -20 7 -20 20 0 15 -7 20 -25 20 -20 0 -25 5 -25 25 0 18 -5
25 -20 25 -13 0 -20 7 -20 20 0 15 -7 20 -25 20 -20 0 -25 5 -25 25 0 18 -5
25 -20 25 -13 0 -20 7 -20 20 0 15 -7 20 -25 20 -20 0 -25 5 -25 25 0 18 -5
25 -20 25 -13 0 -20 7 -20 20 0 15 -7 20 -25 20 -20 0 -25 5 -25 25 0 23 -4
25 -45 25 -38 0 -45 3 -45 20 0 18 -7 20 -65 20 -63 0 -65 1 -65 25 l0 25
-140 0 -140 0 0 -25z m-982 -1577 c-3 -22 -8 -23 -90 -26 l-88 -3 0 -52 c0
-87 -10 -127 -31 -127 -17 0 -19 9 -19 95 0 88 1 95 20 95 13 0 20 7 20 20 0
19 7 20 96 20 93 0 95 -1 92 -22z m442 -3 l0 -25 -175 0 -175 0 0 -200 0 -200
-24 0 c-24 0 -24 2 -28 99 -1 55 -1 147 0 205 4 96 6 106 23 106 12 0 19 7 19
20 0 19 7 20 180 20 l180 0 0 -25z m278 3 c-3 -22 -8 -23 -90 -26 l-88 -3 0
-52 c0 -87 -10 -127 -31 -127 -17 0 -19 9 -19 95 0 88 1 95 20 95 13 0 20 7
20 20 0 19 7 20 96 20 93 0 95 -1 92 -22z m442 -3 l0 -25 -175 0 -175 0 0
-200 0 -200 -24 0 c-24 0 -24 2 -28 99 -1 55 -1 147 0 205 4 96 6 106 23 106
12 0 19 7 19 20 0 19 7 20 180 20 l180 0 0 -25z m278 3 c-3 -22 -8 -23 -90
-26 l-88 -3 0 -52 c0 -87 -10 -127 -31 -127 -17 0 -19 9 -19 95 0 88 1 95 20
95 13 0 20 7 20 20 0 19 7 20 96 20 93 0 95 -1 92 -22z m442 -3 l0 -25 -175 0
-175 0 0 -200 0 -200 -24 0 c-24 0 -24 2 -28 99 -1 55 -1 147 0 205 4 96 6
106 23 106 12 0 19 7 19 20 0 19 7 20 180 20 l180 0 0 -25z m278 3 c-3 -22 -8
-23 -90 -26 l-88 -3 0 -52 c0 -87 -10 -127 -31 -127 -17 0 -19 9 -19 95 0 88
1 95 20 95 13 0 20 7 20 20 0 19 7 20 96 20 93 0 95 -1 92 -22z m442 -3 l0
-25 -175 0 -175 0 0 -200 0 -200 -24 0 c-24 0 -24 2 -28 99 -1 55 -1 147 0
205 4 96 6 106 23 106 12 0 19 7 19 20 0 19 7 20 180 20 l180 0 0 -25z m270 0
c0 -25 -1 -25 -90 -25 l-90 0 0 -90 c0 -83 -1 -90 -20 -90 -19 0 -20 7 -20 95
0 88 1 95 20 95 13 0 20 7 20 20 0 19 7 20 90 20 89 0 90 0 90 -25z m8360 0
l0 -25 -175 0 -175 0 0 -200 0 -200 -25 0 -25 0 0 205 c0 198 1 205 20 205 13
0 20 7 20 20 0 19 7 20 180 20 l180 0 0 -25z m278 3 c-3 -22 -8 -23 -90 -26
l-88 -3 0 -52 c0 -87 -10 -127 -31 -127 -17 0 -19 9 -19 95 0 88 1 95 20 95
13 0 20 7 20 20 0 19 7 20 96 20 93 0 95 -1 92 -22z m442 -3 l0 -25 -175 0
-175 0 0 -200 0 -200 -25 0 -25 0 0 205 c0 198 1 205 20 205 13 0 20 7 20 20
0 19 7 20 180 20 l180 0 0 -25z m278 3 c-3 -22 -8 -23 -90 -26 l-88 -3 0 -52
c0 -87 -10 -127 -31 -127 -17 0 -19 9 -19 95 0 88 1 95 20 95 13 0 20 7 20 20
0 19 7 20 96 20 93 0 95 -1 92 -22z m442 -3 l0 -25 -175 0 -175 0 0 -200 0
-200 -24 0 c-24 0 -24 2 -28 99 -1 55 -1 147 0 205 4 96 6 106 23 106 12 0 19
7 19 20 0 19 7 20 180 20 l180 0 0 -25z m278 3 c-3 -22 -8 -23 -90 -26 l-88
-3 0 -52 c0 -87 -10 -127 -31 -127 -17 0 -19 9 -19 95 0 88 1 95 20 95 13 0
20 7 20 20 0 19 7 20 96 20 93 0 95 -1 92 -22z m-12958 -273 c0 -25 -1 -25
-85 -25 l-85 0 0 -65 c0 -63 -1 -65 -25 -65 -25 0 -25 1 -25 90 l0 90 110 0
110 0 0 -25z m720 0 c0 -25 -1 -25 -85 -25 l-85 0 0 -65 c0 -63 -1 -65 -25
-65 -23 0 -25 -4 -25 -45 0 -38 -3 -45 -20 -45 -17 0 -20 -7 -20 -38 0 -22 -3
-73 -6 -115 l-7 -77 -173 0 -174 0 0 -200 0 -200 -24 0 c-24 0 -24 2 -28 99
-1 55 -1 147 0 205 4 96 6 106 23 106 12 0 19 7 19 20 0 19 7 20 154 20 l154
0 6 31 c3 17 6 58 6 90 0 52 2 59 20 59 17 0 20 7 20 45 0 41 2 45 25 45 25 0
25 1 25 90 l0 90 110 0 110 0 0 -25z m720 0 c0 -25 -1 -25 -85 -25 l-85 0 0
-65 c0 -63 -1 -65 -25 -65 -23 0 -25 -4 -25 -45 0 -38 -3 -45 -20 -45 -17 0
-20 -7 -20 -38 0 -22 -3 -73 -6 -115 l-7 -77 -173 0 -174 0 0 -200 0 -200 -24
0 c-24 0 -24 2 -28 99 -1 55 -1 147 0 205 4 96 6 106 23 106 12 0 19 7 19 20
0 19 7 20 154 20 l154 0 6 31 c3 17 6 58 6 90 0 52 2 59 20 59 17 0 20 7 20
45 0 41 2 45 25 45 25 0 25 1 25 90 l0 90 110 0 110 0 0 -25z m720 0 c0 -25
-1 -25 -85 -25 l-85 0 0 -65 c0 -63 -1 -65 -25 -65 -23 0 -25 -4 -25 -45 0
-38 -3 -45 -20 -45 -17 0 -20 -7 -20 -38 0 -22 -3 -73 -6 -115 l-7 -77 -173 0
-174 0 0 -200 0 -200 -24 0 c-24 0 -24 2 -28 99 -1 55 -1 147 0 205 4 96 6
106 23 106 12 0 19 7 19 20 0 19 7 20 154 20 l154 0 6 31 c3 17 6 58 6 90 0
52 2 59 20 59 17 0 20 7 20 45 0 41 2 45 25 45 25 0 25 1 25 90 l0 90 110 0
110 0 0 -25z m720 0 c0 -25 -1 -25 -90 -25 l-90 0 0 -65 c0 -58 -2 -65 -20
-65 -17 0 -20 -7 -20 -45 0 -41 -2 -45 -25 -45 l-25 0 0 -115 0 -115 -175 0
-175 0 0 -200 0 -200 -24 0 c-24 0 -24 2 -28 99 -1 55 -1 147 0 205 4 96 6
106 23 106 12 0 19 7 19 20 0 19 7 20 154 20 l153 0 7 38 c3 20 6 61 6 90 0
45 3 52 20 52 17 0 20 7 20 45 0 41 2 45 25 45 25 0 25 1 25 90 l0 90 110 0
110 0 0 -25z m720 0 c0 -25 -1 -25 -90 -25 l-90 0 0 -65 c0 -58 -2 -65 -20
-65 -17 0 -20 -7 -20 -45 0 -41 -2 -45 -25 -45 l-25 0 0 -115 0 -115 -180 0
-180 0 0 -200 c0 -190 -1 -200 -19 -200 -17 0 -19 10 -23 103 -1 56 -1 148 1
205 3 92 5 102 22 102 12 0 19 7 19 20 0 19 7 20 154 20 l153 0 7 38 c3 20 6
61 6 90 0 45 3 52 20 52 17 0 20 7 20 45 0 41 2 45 25 45 25 0 25 1 25 90 l0
90 110 0 110 0 0 -25z m720 0 c0 -25 -1 -25 -90 -25 l-90 0 0 -65 c0 -58 -2
-65 -20 -65 -17 0 -20 -7 -20 -45 0 -41 -2 -45 -25 -45 l-25 0 0 -115 0 -115
-180 0 -180 0 0 -200 c0 -190 -1 -200 -19 -200 -17 0 -19 10 -23 103 -1 56 -1
148 1 205 3 92 5 102 22 102 12 0 19 7 19 20 0 19 7 20 154 20 l153 0 7 38 c3
20 6 61 6 90 0 45 3 52 20 52 17 0 20 7 20 45 0 41 2 45 25 45 25 0 25 1 25
90 l0 90 110 0 110 0 0 -25z m720 0 c0 -25 -1 -25 -90 -25 l-90 0 0 -65 c0
-58 -2 -65 -20 -65 -17 0 -20 -7 -20 -45 0 -41 -2 -45 -25 -45 l-25 0 0 -115
0 -115 -180 0 -180 0 0 -200 c0 -190 -1 -200 -19 -200 -17 0 -19 10 -23 103
-1 56 -1 148 1 205 3 92 5 102 22 102 12 0 19 7 19 20 0 19 7 20 154 20 l153
0 7 38 c3 20 6 61 6 90 0 45 3 52 20 52 17 0 20 7 20 45 0 41 2 45 25 45 25 0
25 1 25 90 l0 90 110 0 110 0 0 -25z m718 3 c-3 -22 -8 -23 -90 -26 l-88 -3 0
-64 c0 -58 -2 -65 -20 -65 -17 0 -20 -7 -20 -45 0 -41 -2 -45 -25 -45 l-25 0
0 -115 0 -115 -180 0 -180 0 0 -200 c0 -190 -1 -200 -19 -200 -17 0 -19 10
-23 103 -1 56 -1 148 1 205 3 92 5 102 22 102 12 0 19 7 19 20 0 19 7 20 154
20 l153 0 7 38 c3 20 6 61 6 90 0 45 3 52 20 52 17 0 20 7 20 45 0 41 2 45 25
45 25 0 25 1 25 90 l0 90 111 0 c109 0 110 0 107 -22z m720 0 c-3 -22 -8 -23
-90 -26 l-88 -3 0 -64 c0 -58 -2 -65 -20 -65 -17 0 -20 -7 -20 -45 0 -41 -2
-45 -25 -45 -24 0 -24 0 -27 -112 l-3 -113 -177 -3 -178 -2 0 -200 0 -200 -25
0 -25 0 0 205 c0 198 1 205 20 205 13 0 20 7 20 20 0 19 7 20 160 20 l160 0 0
90 c0 89 0 90 25 90 23 0 25 4 25 45 0 38 3 45 20 45 19 0 20 7 20 90 l0 90
116 0 c114 0 115 0 112 -22z m720 0 c-3 -22 -8 -23 -90 -26 l-88 -3 0 -64 c0
-58 -2 -65 -20 -65 -17 0 -20 -7 -20 -45 0 -41 -2 -45 -25 -45 -24 0 -24 0
-27 -112 l-3 -113 -177 -3 -178 -2 0 -200 0 -200 -25 0 -25 0 0 205 c0 198 1
205 20 205 13 0 20 7 20 20 0 19 7 20 160 20 l160 0 0 90 c0 89 0 90 25 90 23
0 25 4 25 45 0 38 3 45 20 45 19 0 20 7 20 90 l0 90 116 0 c114 0 115 0 112
-22z m720 0 c-3 -22 -8 -23 -90 -26 l-88 -3 0 -64 c0 -58 -2 -65 -20 -65 -17
0 -20 -7 -20 -45 0 -41 -2 -45 -25 -45 -24 0 -24 0 -27 -112 l-3 -113 -177 -3
-178 -2 0 -200 0 -200 -25 0 -25 0 0 205 c0 198 1 205 20 205 13 0 20 7 20 20
0 19 7 20 160 20 l160 0 0 90 c0 89 0 90 25 90 23 0 25 4 25 45 0 38 3 45 20
45 19 0 20 7 20 90 l0 90 116 0 c114 0 115 0 112 -22z m720 0 c-3 -22 -8 -23
-90 -26 l-88 -3 0 -64 c0 -58 -2 -65 -20 -65 -17 0 -20 -7 -20 -45 0 -41 -2
-45 -25 -45 -24 0 -24 0 -27 -112 l-3 -113 -177 -3 -178 -2 0 -200 0 -200 -25
0 -25 0 0 205 c0 198 1 205 20 205 13 0 20 7 20 20 0 19 7 20 160 20 l160 0 0
90 c0 89 0 90 25 90 23 0 25 4 25 45 0 38 3 45 20 45 19 0 20 7 20 90 l0 90
116 0 c114 0 115 0 112 -22z m712 -3 c0 -25 -1 -25 -85 -25 l-85 0 0 -65 c0
-63 -1 -65 -25 -65 -23 0 -25 -4 -25 -45 0 -38 -3 -45 -20 -45 -17 0 -20 -7
-20 -47 0 -27 -3 -78 -7 -115 l-6 -68 -173 0 -174 0 0 -200 0 -200 -25 0 -25
0 0 205 c0 198 1 205 20 205 13 0 20 7 20 20 0 19 7 20 160 20 l160 0 0 90 c0
89 0 90 25 90 23 0 25 4 25 45 0 38 3 45 20 45 19 0 20 7 20 90 l0 90 110 0
110 0 0 -25z m720 0 c0 -25 -1 -25 -85 -25 l-85 0 0 -65 c0 -63 -1 -65 -25
-65 -23 0 -25 -4 -25 -45 0 -38 -3 -45 -20 -45 -17 0 -20 -7 -20 -47 0 -27 -3
-78 -7 -115 l-6 -68 -173 0 -174 0 0 -200 0 -200 -25 0 -25 0 0 205 c0 198 1
205 20 205 13 0 20 7 20 20 0 19 7 20 160 20 l160 0 0 90 c0 89 0 90 25 90 23
0 25 4 25 45 0 38 3 45 20 45 19 0 20 7 20 90 l0 90 110 0 110 0 0 -25z m720
0 c0 -25 -1 -25 -85 -25 l-85 0 0 -65 c0 -63 -1 -65 -25 -65 -23 0 -25 -4 -25
-45 0 -38 -3 -45 -20 -45 -17 0 -20 -7 -20 -47 0 -27 -3 -78 -7 -115 l-6 -68
-173 0 -174 0 0 -200 0 -200 -25 0 -25 0 0 205 c0 198 1 205 20 205 13 0 20 7
20 20 0 19 7 20 160 20 l160 0 0 90 c0 89 0 90 25 90 23 0 25 4 25 45 0 38 3
45 20 45 19 0 20 7 20 90 l0 90 110 0 110 0 0 -25z m720 0 c0 -25 -1 -25 -85
-25 l-85 0 0 -65 c0 -63 -1 -65 -25 -65 -23 0 -25 -4 -25 -45 0 -38 -3 -45
-20 -45 -17 0 -20 -7 -20 -47 0 -27 -3 -78 -7 -115 l-6 -68 -173 0 -174 0 0
-200 0 -200 -25 0 -25 0 0 205 c0 198 1 205 20 205 13 0 20 7 20 20 0 19 7 20
160 20 l160 0 0 90 c0 89 0 90 25 90 23 0 25 4 25 45 0 38 3 45 20 45 19 0 20
7 20 90 l0 90 110 0 110 0 0 -25z m720 0 c0 -25 -1 -25 -85 -25 l-85 0 0 -65
c0 -63 -1 -65 -25 -65 -23 0 -25 -4 -25 -45 0 -38 -3 -45 -20 -45 -17 0 -20
-7 -20 -47 0 -27 -3 -78 -7 -115 l-6 -68 -173 0 -174 0 0 -200 0 -200 -25 0
-25 0 0 205 c0 198 1 205 20 205 13 0 20 7 20 20 0 19 7 20 160 20 l160 0 0
90 c0 89 0 90 25 90 23 0 25 4 25 45 0 38 3 45 20 45 19 0 20 7 20 90 l0 90
110 0 110 0 0 -25z m720 0 c0 -25 -1 -25 -85 -25 l-85 0 0 -65 c0 -63 -1 -65
-25 -65 -23 0 -25 -4 -25 -45 0 -38 -3 -45 -20 -45 -17 0 -20 -7 -20 -38 0
-22 -3 -73 -6 -115 l-7 -77 -173 0 -174 0 0 -200 0 -200 -24 0 c-24 0 -24 2
-28 99 -1 55 -1 147 0 205 4 96 6 106 23 106 12 0 19 7 19 20 0 19 7 20 154
20 l154 0 6 31 c3 17 6 58 6 90 0 52 2 59 20 59 17 0 20 7 20 45 0 41 2 45 25
45 25 0 25 1 25 90 l0 90 110 0 110 0 0 -25z m720 0 c0 -25 -1 -25 -85 -25
l-85 0 0 -65 c0 -63 -1 -65 -25 -65 -23 0 -25 -4 -25 -45 0 -38 -3 -45 -20
-45 -17 0 -20 -7 -20 -38 0 -22 -3 -73 -6 -115 l-7 -77 -173 0 -174 0 0 -200
0 -200 -24 0 c-24 0 -24 2 -28 99 -1 55 -1 147 0 205 4 96 6 106 23 106 12 0
19 7 19 20 0 19 7 20 154 20 l154 0 6 31 c3 17 6 58 6 90 0 52 2 59 20 59 17
0 20 7 20 45 0 41 2 45 25 45 25 0 25 1 25 90 l0 90 110 0 110 0 0 -25z m720
0 c0 -25 -1 -25 -85 -25 l-85 0 0 -65 c0 -63 -1 -65 -25 -65 -23 0 -25 -4 -25
-45 0 -38 -3 -45 -20 -45 -17 0 -20 -7 -20 -38 0 -22 -3 -73 -6 -115 l-7 -77
-173 0 -174 0 0 -200 0 -200 -24 0 c-24 0 -24 2 -28 99 -1 55 -1 147 0 205 4
96 6 106 23 106 12 0 19 7 19 20 0 19 7 20 154 20 l154 0 6 31 c3 17 6 58 6
90 0 52 2 59 20 59 17 0 20 7 20 45 0 41 2 45 25 45 25 0 25 1 25 90 l0 90
110 0 110 0 0 -25z m720 0 c0 -25 -1 -25 -85 -25 l-85 0 0 -65 c0 -63 -1 -65
-25 -65 -23 0 -25 -4 -25 -45 0 -38 -3 -45 -20 -45 -17 0 -20 -7 -20 -38 0
-22 -3 -73 -6 -115 l-7 -77 -173 0 -174 0 0 -200 0 -200 -24 0 c-24 0 -24 2
-28 99 -1 55 -1 147 0 205 4 96 6 106 23 106 12 0 19 7 19 20 0 19 7 20 154
20 l154 0 6 31 c3 17 6 58 6 90 0 52 2 59 20 59 17 0 20 7 20 45 0 41 2 45 25
45 25 0 25 1 25 90 l0 90 110 0 110 0 0 -25z m720 0 c0 -25 -1 -25 -90 -25
l-90 0 0 -65 c0 -58 -2 -65 -20 -65 -17 0 -20 -7 -20 -45 0 -41 -2 -45 -25
-45 l-25 0 0 -115 0 -115 -175 0 -175 0 0 -200 0 -200 -24 0 c-24 0 -24 2 -28
99 -1 55 -1 147 0 205 4 96 6 106 23 106 12 0 19 7 19 20 0 19 7 20 154 20
l153 0 7 38 c3 20 6 61 6 90 0 45 3 52 20 52 17 0 20 7 20 45 0 41 2 45 25 45
25 0 25 1 25 90 l0 90 110 0 110 0 0 -25z m720 0 c0 -25 -1 -25 -90 -25 l-90
0 0 -65 c0 -58 -2 -65 -20 -65 -17 0 -20 -7 -20 -45 0 -41 -2 -45 -25 -45
l-25 0 0 -115 0 -115 -180 0 -180 0 0 -200 c0 -190 -1 -200 -19 -200 -17 0
-19 10 -23 103 -1 56 -1 148 1 205 3 92 5 102 22 102 12 0 19 7 19 20 0 19 7
20 154 20 l153 0 7 38 c3 20 6 61 6 90 0 45 3 52 20 52 17 0 20 7 20 45 0 41
2 45 25 45 25 0 25 1 25 90 l0 90 110 0 110 0 0 -25z m720 0 c0 -25 -1 -25
-90 -25 l-90 0 0 -65 c0 -58 -2 -65 -20 -65 -17 0 -20 -7 -20 -45 0 -41 -2
-45 -25 -45 l-25 0 0 -115 0 -115 -180 0 -180 0 0 -200 c0 -190 -1 -200 -19
-200 -17 0 -19 10 -23 103 -1 56 -1 148 1 205 3 92 5 102 22 102 12 0 19 7 19
20 0 19 7 20 154 20 l153 0 7 38 c3 20 6 61 6 90 0 45 3 52 20 52 17 0 20 7
20 45 0 41 2 45 25 45 25 0 25 1 25 90 l0 90 110 0 110 0 0 -25z m720 0 c0
-25 -1 -25 -90 -25 l-90 0 0 -65 c0 -58 -2 -65 -20 -65 -17 0 -20 -7 -20 -45
0 -41 -2 -45 -25 -45 l-25 0 0 -115 0 -115 -180 0 -180 0 0 -200 c0 -190 -1
-200 -19 -200 -17 0 -19 10 -23 103 -1 56 -1 148 1 205 3 92 5 102 22 102 12
0 19 7 19 20 0 19 7 20 154 20 l153 0 7 38 c3 20 6 61 6 90 0 45 3 52 20 52
17 0 20 7 20 45 0 41 2 45 25 45 25 0 25 1 25 90 l0 90 110 0 110 0 0 -25z
m500 -200 c0 -41 -2 -45 -25 -45 l-25 0 0 -115 0 -115 -180 0 -180 0 0 -200
c0 -190 -1 -200 -19 -200 -17 0 -19 10 -23 103 -1 56 -1 148 1 205 3 92 5 102
22 102 12 0 19 7 19 20 0 19 7 20 154 20 l153 0 7 38 c3 20 6 61 6 90 0 45 3
52 20 52 17 0 20 7 20 45 0 41 2 45 25 45 23 0 25 -4 25 -45z m-18350 -25 c0
-17 7 -20 45 -20 41 0 45 -2 45 -25 0 -24 2 -25 65 -25 58 0 65 -2 65 -20 0
-18 -7 -20 -70 -20 -63 0 -70 2 -70 19 0 16 -8 20 -42 23 -36 2 -44 7 -46 26
-2 12 -10 22 -17 22 -10 0 -15 -18 -17 -67 -3 -62 -5 -68 -25 -71 -22 -3 -23
-1 -23 87 l0 91 45 0 c38 0 45 -3 45 -20z m720 0 c0 -17 7 -20 45 -20 41 0 45
-2 45 -25 0 -24 2 -25 65 -25 58 0 65 -2 65 -20 0 -18 -7 -20 -70 -20 -63 0
-70 2 -70 19 0 16 -8 20 -42 23 -36 2 -44 7 -46 26 -2 12 -10 22 -17 22 -10 0
-15 -18 -17 -67 -3 -62 -5 -68 -25 -71 -22 -3 -23 -1 -23 87 l0 91 45 0 c38 0
45 -3 45 -20z m720 0 c0 -17 7 -20 45 -20 41 0 45 -2 45 -25 0 -24 2 -25 65
-25 58 0 65 -2 65 -20 0 -18 -7 -20 -70 -20 -63 0 -70 2 -70 19 0 16 -8 20
-42 23 -36 2 -44 7 -46 26 -2 12 -10 22 -17 22 -10 0 -15 -18 -17 -67 -3 -62
-5 -68 -25 -71 -22 -3 -23 -1 -23 87 l0 91 45 0 c38 0 45 -3 45 -20z m720 0
c0 -17 7 -20 45 -20 41 0 45 -2 45 -25 0 -24 2 -25 65 -25 58 0 65 -2 65 -20
0 -18 -7 -20 -70 -20 -63 0 -70 2 -70 19 0 16 -8 20 -42 23 -36 2 -44 7 -46
26 -2 12 -10 22 -17 22 -10 0 -15 -18 -17 -67 -3 -62 -5 -68 -25 -71 -22 -3
-23 -1 -23 87 l0 91 45 0 c38 0 45 -3 45 -20z m710 0 c0 -17 7 -20 44 -20 39
0 45 -3 48 -22 3 -21 9 -23 71 -26 59 -3 67 -5 67 -22 0 -18 -7 -20 -70 -20
-63 0 -70 2 -70 20 0 17 -7 20 -45 20 -41 0 -45 2 -45 25 0 18 -5 25 -20 25
-18 0 -20 -7 -20 -70 0 -63 -2 -70 -20 -70 -19 0 -20 7 -20 90 l0 90 40 0 c33
0 40 -3 40 -20z m720 0 c0 -17 7 -20 44 -20 39 0 45 -3 48 -22 3 -21 9 -23 71
-26 59 -3 67 -5 67 -22 0 -18 -7 -20 -70 -20 -63 0 -70 2 -70 20 0 17 -7 20
-45 20 -41 0 -45 2 -45 25 0 18 -5 25 -20 25 -18 0 -20 -7 -20 -70 0 -63 -2
-70 -20 -70 -19 0 -20 7 -20 90 l0 90 40 0 c33 0 40 -3 40 -20z m720 0 c0 -17
7 -20 44 -20 39 0 45 -3 48 -22 3 -21 9 -23 71 -26 59 -3 67 -5 67 -22 0 -18
-7 -20 -70 -20 -63 0 -70 2 -70 20 0 17 -7 20 -45 20 -41 0 -45 2 -45 25 0 18
-5 25 -20 25 -18 0 -20 -7 -20 -70 0 -63 -2 -70 -20 -70 -19 0 -20 7 -20 90
l0 90 40 0 c33 0 40 -3 40 -20z m720 0 c0 -17 7 -20 44 -20 39 0 45 -3 48 -22
3 -21 9 -23 71 -26 59 -3 67 -5 67 -22 0 -18 -7 -20 -70 -20 -63 0 -70 2 -70
20 0 17 -7 20 -45 20 -41 0 -45 2 -45 25 0 18 -5 25 -20 25 -18 0 -20 -7 -20
-70 0 -63 -2 -70 -20 -70 -19 0 -20 7 -20 90 l0 90 40 0 c33 0 40 -3 40 -20z
m720 0 c0 -17 7 -20 44 -20 39 0 45 -3 48 -22 3 -21 9 -23 71 -26 59 -3 67 -5
67 -22 0 -18 -7 -20 -70 -20 -63 0 -70 2 -70 20 0 17 -7 20 -45 20 -41 0 -45
2 -45 25 0 18 -5 25 -20 25 -18 0 -20 -7 -20 -70 0 -68 -1 -70 -25 -70 -25 0
-25 1 -25 90 l0 90 45 0 c38 0 45 -3 45 -20z m720 0 c0 -17 7 -20 44 -20 39 0
45 -3 48 -22 3 -21 9 -23 71 -26 59 -3 67 -5 67 -22 0 -18 -7 -20 -70 -20 -63
0 -70 2 -70 20 0 17 -7 20 -45 20 -41 0 -45 2 -45 25 0 18 -5 25 -20 25 -18 0
-20 -7 -20 -70 0 -68 -1 -70 -25 -70 -25 0 -25 1 -25 90 l0 90 45 0 c38 0 45
-3 45 -20z m720 0 c0 -17 7 -20 44 -20 39 0 45 -3 48 -22 3 -21 9 -23 71 -26
59 -3 67 -5 67 -22 0 -18 -7 -20 -70 -20 -63 0 -70 2 -70 20 0 17 -7 20 -45
20 -41 0 -45 2 -45 25 0 18 -5 25 -20 25 -18 0 -20 -7 -20 -70 0 -68 -1 -70
-25 -70 -25 0 -25 1 -25 90 l0 90 45 0 c38 0 45 -3 45 -20z m720 0 c0 -17 7
-20 44 -20 39 0 45 -3 48 -22 3 -21 9 -23 71 -26 59 -3 67 -5 67 -22 0 -18 -7
-20 -70 -20 -63 0 -70 2 -70 20 0 17 -7 20 -45 20 -41 0 -45 2 -45 25 0 18 -5
25 -20 25 -18 0 -20 -7 -20 -70 0 -68 -1 -70 -25 -70 -25 0 -25 1 -25 90 l0
90 45 0 c38 0 45 -3 45 -20z m720 0 c0 -17 7 -20 44 -20 39 0 45 -3 48 -22 3
-21 9 -23 66 -26 54 -3 62 -6 62 -22 0 -18 -7 -20 -65 -20 -58 0 -65 2 -65 20
0 17 -7 20 -45 20 -41 0 -45 2 -45 25 0 18 -5 25 -20 25 -18 0 -20 -7 -20 -70
0 -68 -1 -70 -25 -70 -25 0 -25 1 -25 90 l0 90 45 0 c38 0 45 -3 45 -20z m720
0 c0 -17 7 -20 45 -20 41 0 45 -2 45 -25 0 -24 2 -25 65 -25 58 0 65 -2 65
-20 0 -18 -7 -20 -65 -20 -58 0 -65 2 -65 20 0 17 -7 20 -45 20 -41 0 -45 2
-45 25 0 18 -5 25 -20 25 -17 0 -19 -8 -22 -67 -3 -62 -5 -68 -25 -71 -22 -3
-23 -1 -23 87 l0 91 45 0 c38 0 45 -3 45 -20z m720 0 c0 -17 7 -20 45 -20 41
0 45 -2 45 -25 0 -24 2 -25 65 -25 58 0 65 -2 65 -20 0 -18 -7 -20 -65 -20
-58 0 -65 2 -65 20 0 17 -7 20 -45 20 -41 0 -45 2 -45 25 0 18 -5 25 -20 25
-17 0 -19 -8 -22 -67 -3 -62 -5 -68 -25 -71 -22 -3 -23 -1 -23 87 l0 91 45 0
c38 0 45 -3 45 -20z m720 0 c0 -17 7 -20 45 -20 41 0 45 -2 45 -25 0 -24 2
-25 65 -25 58 0 65 -2 65 -20 0 -18 -7 -20 -65 -20 -58 0 -65 2 -65 20 0 17
-7 20 -45 20 -41 0 -45 2 -45 25 0 18 -5 25 -20 25 -17 0 -19 -8 -22 -67 -3
-62 -5 -68 -25 -71 -22 -3 -23 -1 -23 87 l0 91 45 0 c38 0 45 -3 45 -20z m720
0 c0 -17 7 -20 45 -20 41 0 45 -2 45 -25 0 -24 2 -25 65 -25 58 0 65 -2 65
-20 0 -18 -7 -20 -65 -20 -58 0 -65 2 -65 20 0 17 -7 20 -45 20 -41 0 -45 2
-45 25 0 18 -5 25 -20 25 -17 0 -19 -8 -22 -67 -3 -62 -5 -68 -25 -71 -22 -3
-23 -1 -23 87 l0 91 45 0 c38 0 45 -3 45 -20z m720 0 c0 -17 7 -20 45 -20 41
0 45 -2 45 -25 0 -24 2 -25 65 -25 58 0 65 -2 65 -20 0 -18 -7 -20 -70 -20
-63 0 -70 2 -70 19 0 16 -8 20 -42 23 -36 2 -44 7 -46 26 -2 12 -10 22 -17 22
-10 0 -15 -18 -17 -67 -3 -62 -5 -68 -25 -71 -22 -3 -23 -1 -23 87 l0 91 45 0
c38 0 45 -3 45 -20z m720 0 c0 -17 7 -20 45 -20 41 0 45 -2 45 -25 0 -24 2
-25 65 -25 58 0 65 -2 65 -20 0 -18 -7 -20 -70 -20 -63 0 -70 2 -70 19 0 16
-8 20 -42 23 -36 2 -44 7 -46 26 -2 12 -10 22 -17 22 -10 0 -15 -18 -17 -67
-3 -62 -5 -68 -25 -71 -22 -3 -23 -1 -23 87 l0 91 45 0 c38 0 45 -3 45 -20z
m720 0 c0 -17 7 -20 45 -20 41 0 45 -2 45 -25 0 -24 2 -25 65 -25 58 0 65 -2
65 -20 0 -18 -7 -20 -70 -20 -63 0 -70 2 -70 19 0 16 -8 20 -42 23 -36 2 -44
7 -46 26 -2 12 -10 22 -17 22 -10 0 -15 -18 -17 -67 -3 -62 -5 -68 -25 -71
-22 -3 -23 -1 -23 87 l0 91 45 0 c38 0 45 -3 45 -20z m720 0 c0 -17 7 -20 45
-20 41 0 45 -2 45 -25 0 -24 2 -25 65 -25 58 0 65 -2 65 -20 0 -18 -7 -20 -70
-20 -63 0 -70 2 -70 19 0 16 -8 20 -42 23 -36 2 -44 7 -46 26 -2 12 -10 22
-17 22 -10 0 -15 -18 -17 -67 -3 -62 -5 -68 -25 -71 -22 -3 -23 -1 -23 87 l0
91 45 0 c38 0 45 -3 45 -20z m720 0 c0 -17 7 -20 45 -20 41 0 45 -2 45 -25 0
-24 2 -25 65 -25 58 0 65 -2 65 -20 0 -18 -7 -20 -70 -20 -63 0 -70 2 -70 19
0 16 -8 20 -42 23 -36 2 -44 7 -46 26 -2 12 -10 22 -17 22 -10 0 -15 -18 -17
-67 -3 -62 -5 -68 -25 -71 -22 -3 -23 -1 -23 87 l0 91 45 0 c38 0 45 -3 45
-20z m710 0 c0 -17 7 -20 44 -20 39 0 45 -3 48 -22 3 -21 9 -23 71 -26 59 -3
67 -5 67 -22 0 -18 -7 -20 -70 -20 -63 0 -70 2 -70 20 0 17 -7 20 -45 20 -41
0 -45 2 -45 25 0 18 -5 25 -20 25 -18 0 -20 -7 -20 -70 0 -63 -2 -70 -20 -70
-19 0 -20 7 -20 90 l0 90 40 0 c33 0 40 -3 40 -20z m720 0 c0 -17 7 -20 44
-20 39 0 45 -3 48 -22 3 -21 9 -23 71 -26 59 -3 67 -5 67 -22 0 -18 -7 -20
-70 -20 -63 0 -70 2 -70 20 0 17 -7 20 -45 20 -41 0 -45 2 -45 25 0 18 -5 25
-20 25 -18 0 -20 -7 -20 -70 0 -63 -2 -70 -20 -70 -19 0 -20 7 -20 90 l0 90
40 0 c33 0 40 -3 40 -20z m720 0 c0 -17 7 -20 44 -20 39 0 45 -3 48 -22 3 -21
9 -23 71 -26 59 -3 67 -5 67 -22 0 -18 -7 -20 -70 -20 -63 0 -70 2 -70 20 0
17 -7 20 -45 20 -41 0 -45 2 -45 25 0 18 -5 25 -20 25 -18 0 -20 -7 -20 -70 0
-63 -2 -70 -20 -70 -19 0 -20 7 -20 90 l0 90 40 0 c33 0 40 -3 40 -20z m720 0
c0 -17 7 -20 44 -20 39 0 45 -3 48 -22 3 -21 9 -23 71 -26 59 -3 67 -5 67 -22
0 -18 -7 -20 -70 -20 -63 0 -70 2 -70 20 0 17 -7 20 -45 20 -41 0 -45 2 -45
25 0 18 -5 25 -20 25 -18 0 -20 -7 -20 -70 0 -63 -2 -70 -20 -70 -19 0 -20 7
-20 90 l0 90 40 0 c33 0 40 -3 40 -20z m-18112 -222 c-3 -22 -8 -23 -90 -26
l-88 -3 0 -52 c0 -87 -10 -127 -31 -127 -17 0 -19 9 -19 95 0 88 1 95 20 95
13 0 20 7 20 20 0 19 7 20 96 20 93 0 95 -1 92 -22z m720 0 c-3 -22 -8 -23
-90 -26 l-88 -3 0 -52 c0 -87 -10 -127 -31 -127 -17 0 -19 9 -19 95 0 88 1 95
20 95 13 0 20 7 20 20 0 19 7 20 96 20 93 0 95 -1 92 -22z m720 0 c-3 -22 -8
-23 -90 -26 l-88 -3 0 -52 c0 -87 -10 -127 -31 -127 -17 0 -19 9 -19 95 0 88
1 95 20 95 13 0 20 7 20 20 0 19 7 20 96 20 93 0 95 -1 92 -22z m720 0 c-3
-22 -8 -23 -90 -26 l-88 -3 0 -52 c0 -87 -10 -127 -31 -127 -17 0 -19 9 -19
95 0 88 1 95 20 95 13 0 20 7 20 20 0 19 7 20 96 20 93 0 95 -1 92 -22z m712
-3 c0 -25 -1 -25 -90 -25 l-90 0 0 -90 c0 -83 -1 -90 -20 -90 -19 0 -20 7 -20
95 0 88 1 95 20 95 13 0 20 7 20 20 0 19 7 20 90 20 89 0 90 0 90 -25z m720 0
c0 -25 -1 -25 -90 -25 l-90 0 0 -90 c0 -83 -1 -90 -20 -90 -19 0 -20 7 -20 95
0 88 1 95 20 95 13 0 20 7 20 20 0 19 7 20 90 20 89 0 90 0 90 -25z m720 0 c0
-25 -1 -25 -90 -25 l-90 0 0 -90 c0 -83 -1 -90 -20 -90 -19 0 -20 7 -20 95 0
88 1 95 20 95 13 0 20 7 20 20 0 19 7 20 90 20 89 0 90 0 90 -25z m720 0 c0
-25 -1 -25 -90 -25 l-90 0 0 -90 c0 -83 -1 -90 -20 -90 -19 0 -20 7 -20 95 0
88 1 95 20 95 13 0 20 7 20 20 0 19 7 20 90 20 89 0 90 0 90 -25z m720 0 c0
-25 -1 -25 -90 -25 l-90 0 0 -90 c0 -83 -1 -90 -20 -90 -19 0 -20 7 -20 95 0
88 1 95 20 95 13 0 20 7 20 20 0 19 7 20 90 20 89 0 90 0 90 -25z m720 0 c0
-25 -1 -25 -90 -25 l-89 0 -3 -87 c-3 -80 -5 -88 -23 -88 -18 0 -20 8 -23 88
-3 82 -1 89 18 94 11 3 20 14 20 24 0 17 9 19 95 19 95 0 95 0 95 -25z m720 0
c0 -25 -1 -25 -90 -25 l-89 0 -3 -87 c-3 -80 -5 -88 -23 -88 -18 0 -20 8 -23
88 -3 82 -1 89 18 94 11 3 20 14 20 24 0 17 9 19 95 19 95 0 95 0 95 -25z
m720 0 c0 -25 -1 -25 -90 -25 l-89 0 -3 -87 c-3 -80 -5 -88 -23 -88 -18 0 -20
8 -23 88 -3 82 -1 89 18 94 11 3 20 14 20 24 0 17 9 19 95 19 95 0 95 0 95
-25z m720 0 c0 -25 -1 -25 -90 -25 l-89 0 -3 -87 c-3 -80 -5 -88 -23 -88 -18
0 -20 8 -23 88 -3 82 -1 89 18 94 11 3 20 14 20 24 0 17 9 19 95 19 95 0 95 0
95 -25z m718 3 c-3 -22 -8 -23 -90 -26 l-88 -3 0 -52 c0 -87 -10 -127 -31
-127 -17 0 -19 9 -19 95 0 88 1 95 20 95 13 0 20 7 20 20 0 19 7 20 96 20 93
0 95 -1 92 -22z m720 0 c-3 -22 -8 -23 -90 -26 l-88 -3 0 -52 c0 -87 -10 -127
-31 -127 -17 0 -19 9 -19 95 0 88 1 95 20 95 13 0 20 7 20 20 0 19 7 20 96 20
93 0 95 -1 92 -22z m720 0 c-3 -22 -8 -23 -90 -26 l-88 -3 0 -52 c0 -87 -10
-127 -31 -127 -17 0 -19 9 -19 95 0 88 1 95 20 95 13 0 20 7 20 20 0 19 7 20
96 20 93 0 95 -1 92 -22z m720 0 c-3 -22 -8 -23 -90 -26 l-88 -3 0 -52 c0 -87
-10 -127 -31 -127 -17 0 -19 9 -19 95 0 88 1 95 20 95 13 0 20 7 20 20 0 19 7
20 96 20 93 0 95 -1 92 -22z m720 0 c-3 -22 -8 -23 -90 -26 l-88 -3 0 -52 c0
-87 -10 -127 -31 -127 -17 0 -19 9 -19 95 0 88 1 95 20 95 13 0 20 7 20 20 0
19 7 20 96 20 93 0 95 -1 92 -22z m720 0 c-3 -22 -8 -23 -90 -26 l-88 -3 0
-52 c0 -87 -10 -127 -31 -127 -17 0 -19 9 -19 95 0 88 1 95 20 95 13 0 20 7
20 20 0 19 7 20 96 20 93 0 95 -1 92 -22z m720 0 c-3 -22 -8 -23 -90 -26 l-88
-3 0 -52 c0 -87 -10 -127 -31 -127 -17 0 -19 9 -19 95 0 88 1 95 20 95 13 0
20 7 20 20 0 19 7 20 96 20 93 0 95 -1 92 -22z m720 0 c-3 -22 -8 -23 -90 -26
l-88 -3 0 -52 c0 -87 -10 -127 -31 -127 -17 0 -19 9 -19 95 0 88 1 95 20 95
13 0 20 7 20 20 0 19 7 20 96 20 93 0 95 -1 92 -22z m720 0 c-3 -22 -8 -23
-90 -26 l-88 -3 0 -52 c0 -87 -10 -127 -31 -127 -17 0 -19 9 -19 95 0 88 1 95
20 95 13 0 20 7 20 20 0 19 7 20 96 20 93 0 95 -1 92 -22z m712 -3 c0 -25 -1
-25 -90 -25 l-90 0 0 -90 c0 -83 -1 -90 -20 -90 -19 0 -20 7 -20 95 0 88 1 95
20 95 13 0 20 7 20 20 0 19 7 20 90 20 89 0 90 0 90 -25z m720 0 c0 -25 -1
-25 -90 -25 l-90 0 0 -90 c0 -83 -1 -90 -20 -90 -19 0 -20 7 -20 95 0 88 1 95
20 95 13 0 20 7 20 20 0 19 7 20 90 20 89 0 90 0 90 -25z m720 0 c0 -25 -1
-25 -90 -25 l-90 0 0 -90 c0 -83 -1 -90 -20 -90 -19 0 -20 7 -20 95 0 88 1 95
20 95 13 0 20 7 20 20 0 19 7 20 90 20 89 0 90 0 90 -25z m720 0 c0 -25 -1
-25 -90 -25 l-90 0 0 -90 c0 -83 -1 -90 -20 -90 -19 0 -20 7 -20 95 0 88 1 95
20 95 13 0 20 7 20 20 0 19 7 20 90 20 89 0 90 0 90 -25z m-17990 -270 c0 -25
-1 -25 -85 -25 l-85 0 0 -65 c0 -63 -1 -65 -25 -65 -25 0 -25 1 -25 90 l0 90
110 0 110 0 0 -25z m720 0 c0 -25 -1 -25 -85 -25 l-85 0 0 -65 c0 -63 -1 -65
-25 -65 -25 0 -25 1 -25 90 l0 90 110 0 110 0 0 -25z m720 0 c0 -25 -1 -25
-85 -25 l-85 0 0 -65 c0 -63 -1 -65 -25 -65 -25 0 -25 1 -25 90 l0 90 110 0
110 0 0 -25z m720 0 c0 -25 -1 -25 -85 -25 l-85 0 0 -65 c0 -63 -1 -65 -25
-65 -25 0 -25 1 -25 90 l0 90 110 0 110 0 0 -25z m720 0 c0 -25 -1 -25 -90
-25 l-90 0 0 -65 c0 -58 -2 -65 -20 -65 -17 0 -20 -7 -20 -45 0 -41 -2 -45
-25 -45 -23 0 -25 4 -25 45 0 41 2 45 25 45 25 0 25 1 25 90 l0 90 110 0 110
0 0 -25z m720 0 c0 -25 -1 -25 -90 -25 l-90 0 0 -65 c0 -58 -2 -65 -20 -65
-17 0 -20 -7 -20 -45 0 -41 -2 -45 -25 -45 -23 0 -25 4 -25 45 0 41 2 45 25
45 25 0 25 1 25 90 l0 90 110 0 110 0 0 -25z m720 0 c0 -25 -1 -25 -90 -25
l-90 0 0 -65 c0 -58 -2 -65 -20 -65 -17 0 -20 -7 -20 -45 0 -41 -2 -45 -25
-45 -23 0 -25 4 -25 45 0 41 2 45 25 45 25 0 25 1 25 90 l0 90 110 0 110 0 0
-25z m720 0 c0 -25 -1 -25 -90 -25 l-90 0 0 -65 c0 -58 -2 -65 -20 -65 -17 0
-20 -7 -20 -45 0 -41 -2 -45 -25 -45 -23 0 -25 4 -25 45 0 41 2 45 25 45 25 0
25 1 25 90 l0 90 110 0 110 0 0 -25z m718 3 c-3 -22 -8 -23 -90 -26 l-88 -3 0
-64 c0 -58 -2 -65 -20 -65 -17 0 -20 -7 -20 -45 0 -41 -2 -45 -25 -45 -23 0
-25 4 -25 45 0 41 2 45 25 45 25 0 25 1 25 90 l0 90 111 0 c109 0 110 0 107
-22z m720 0 c-3 -22 -8 -23 -90 -26 l-88 -3 0 -64 c0 -58 -2 -65 -20 -65 -17
0 -20 -7 -20 -45 0 -41 -2 -45 -25 -45 -23 0 -25 4 -25 45 0 38 3 45 20 45 19
0 20 7 20 90 l0 90 116 0 c114 0 115 0 112 -22z m720 0 c-3 -22 -8 -23 -90
-26 l-88 -3 0 -64 c0 -58 -2 -65 -20 -65 -17 0 -20 -7 -20 -45 0 -41 -2 -45
-25 -45 -23 0 -25 4 -25 45 0 38 3 45 20 45 19 0 20 7 20 90 l0 90 116 0 c114
0 115 0 112 -22z m720 0 c-3 -22 -8 -23 -90 -26 l-88 -3 0 -64 c0 -58 -2 -65
-20 -65 -17 0 -20 -7 -20 -45 0 -41 -2 -45 -25 -45 -23 0 -25 4 -25 45 0 38 3
45 20 45 19 0 20 7 20 90 l0 90 116 0 c114 0 115 0 112 -22z m720 0 c-3 -22
-8 -23 -90 -26 l-88 -3 0 -64 c0 -58 -2 -65 -20 -65 -17 0 -20 -7 -20 -45 0
-41 -2 -45 -25 -45 -23 0 -25 4 -25 45 0 38 3 45 20 45 19 0 20 7 20 90 l0 90
116 0 c114 0 115 0 112 -22z m712 -3 c0 -25 -1 -25 -85 -25 l-85 0 0 -65 c0
-63 -1 -65 -25 -65 -23 0 -25 -4 -25 -45 0 -38 -3 -45 -20 -45 -17 0 -20 7
-20 45 0 38 3 45 20 45 19 0 20 7 20 90 l0 90 110 0 110 0 0 -25z m720 0 c0
-25 -1 -25 -85 -25 l-85 0 0 -65 c0 -63 -1 -65 -25 -65 -23 0 -25 -4 -25 -45
0 -38 -3 -45 -20 -45 -17 0 -20 7 -20 45 0 38 3 45 20 45 19 0 20 7 20 90 l0
90 110 0 110 0 0 -25z m720 0 c0 -25 -1 -25 -85 -25 l-85 0 0 -65 c0 -63 -1
-65 -25 -65 -23 0 -25 -4 -25 -45 0 -38 -3 -45 -20 -45 -17 0 -20 7 -20 45 0
38 3 45 20 45 19 0 20 7 20 90 l0 90 110 0 110 0 0 -25z m720 0 c0 -25 -1 -25
-85 -25 l-85 0 0 -65 c0 -63 -1 -65 -25 -65 -23 0 -25 -4 -25 -45 0 -38 -3
-45 -20 -45 -17 0 -20 7 -20 45 0 38 3 45 20 45 19 0 20 7 20 90 l0 90 110 0
110 0 0 -25z m720 0 c0 -25 -1 -25 -85 -25 l-85 0 0 -65 c0 -63 -1 -65 -25
-65 -23 0 -25 -4 -25 -45 0 -38 -3 -45 -20 -45 -17 0 -20 7 -20 45 0 38 3 45
20 45 19 0 20 7 20 90 l0 90 110 0 110 0 0 -25z m720 0 c0 -25 -1 -25 -85 -25
l-85 0 0 -65 c0 -63 -1 -65 -25 -65 -25 0 -25 1 -25 90 l0 90 110 0 110 0 0
-25z m720 0 c0 -25 -1 -25 -85 -25 l-85 0 0 -65 c0 -63 -1 -65 -25 -65 -25 0
-25 1 -25 90 l0 90 110 0 110 0 0 -25z m720 0 c0 -25 -1 -25 -85 -25 l-85 0 0
-65 c0 -63 -1 -65 -25 -65 -25 0 -25 1 -25 90 l0 90 110 0 110 0 0 -25z m720
0 c0 -25 -1 -25 -85 -25 l-85 0 0 -65 c0 -63 -1 -65 -25 -65 -25 0 -25 1 -25
90 l0 90 110 0 110 0 0 -25z m720 0 c0 -25 -1 -25 -90 -25 l-90 0 0 -65 c0
-58 -2 -65 -20 -65 -17 0 -20 -7 -20 -45 0 -41 -2 -45 -25 -45 -23 0 -25 4
-25 45 0 41 2 45 25 45 25 0 25 1 25 90 l0 90 110 0 110 0 0 -25z m720 0 c0
-25 -1 -25 -90 -25 l-90 0 0 -65 c0 -58 -2 -65 -20 -65 -17 0 -20 -7 -20 -45
0 -41 -2 -45 -25 -45 -23 0 -25 4 -25 45 0 41 2 45 25 45 25 0 25 1 25 90 l0
90 110 0 110 0 0 -25z m720 0 c0 -25 -1 -25 -90 -25 l-90 0 0 -65 c0 -58 -2
-65 -20 -65 -17 0 -20 -7 -20 -45 0 -41 -2 -45 -25 -45 -23 0 -25 4 -25 45 0
41 2 45 25 45 25 0 25 1 25 90 l0 90 110 0 110 0 0 -25z m720 0 c0 -25 -1 -25
-90 -25 l-90 0 0 -65 c0 -58 -2 -65 -20 -65 -17 0 -20 -7 -20 -45 0 -41 -2
-45 -25 -45 -23 0 -25 4 -25 45 0 41 2 45 25 45 25 0 25 1 25 90 l0 90 110 0
110 0 0 -25z m500 -200 c0 -41 -2 -45 -25 -45 -23 0 -25 4 -25 45 0 41 2 45
25 45 23 0 25 -4 25 -45z m-18350 -25 c0 -17 7 -20 45 -20 41 0 45 -2 45 -25
0 -24 2 -25 65 -25 58 0 65 -2 65 -20 0 -18 -7 -20 -70 -20 -63 0 -70 2 -70
19 0 16 -8 20 -42 23 -36 2 -44 7 -46 26 -2 12 -10 22 -17 22 -10 0 -15 -18
-17 -67 -3 -62 -5 -68 -25 -71 -22 -3 -23 -1 -23 87 l0 91 45 0 c38 0 45 -3
45 -20z m720 0 c0 -17 7 -20 45 -20 41 0 45 -2 45 -25 0 -24 2 -25 65 -25 58
0 65 -2 65 -20 0 -18 -7 -20 -70 -20 -63 0 -70 2 -70 19 0 16 -8 20 -42 23
-36 2 -44 7 -46 26 -2 12 -10 22 -17 22 -10 0 -15 -18 -17 -67 -3 -62 -5 -68
-25 -71 -22 -3 -23 -1 -23 87 l0 91 45 0 c38 0 45 -3 45 -20z m720 0 c0 -17 7
-20 45 -20 41 0 45 -2 45 -25 0 -24 2 -25 65 -25 58 0 65 -2 65 -20 0 -18 -7
-20 -70 -20 -63 0 -70 2 -70 19 0 16 -8 20 -42 23 -36 2 -44 7 -46 26 -2 12
-10 22 -17 22 -10 0 -15 -18 -17 -67 -3 -62 -5 -68 -25 -71 -22 -3 -23 -1 -23
87 l0 91 45 0 c38 0 45 -3 45 -20z m720 0 c0 -17 7 -20 45 -20 41 0 45 -2 45
-25 0 -24 2 -25 65 -25 58 0 65 -2 65 -20 0 -18 -7 -20 -70 -20 -63 0 -70 2
-70 19 0 16 -8 20 -42 23 -36 2 -44 7 -46 26 -2 12 -10 22 -17 22 -10 0 -15
-18 -17 -67 -3 -62 -5 -68 -25 -71 -22 -3 -23 -1 -23 87 l0 91 45 0 c38 0 45
-3 45 -20z m710 0 c0 -17 7 -20 44 -20 39 0 45 -3 48 -22 3 -21 9 -23 71 -26
59 -3 67 -5 67 -22 0 -18 -7 -20 -70 -20 -63 0 -70 2 -70 20 0 17 -7 20 -45
20 -41 0 -45 2 -45 25 0 18 -5 25 -20 25 -18 0 -20 -7 -20 -70 0 -63 -2 -70
-20 -70 -19 0 -20 7 -20 90 l0 90 40 0 c33 0 40 -3 40 -20z m720 0 c0 -17 7
-20 44 -20 39 0 45 -3 48 -22 3 -21 9 -23 71 -26 59 -3 67 -5 67 -22 0 -18 -7
-20 -70 -20 -63 0 -70 2 -70 20 0 17 -7 20 -45 20 -41 0 -45 2 -45 25 0 18 -5
25 -20 25 -18 0 -20 -7 -20 -70 0 -63 -2 -70 -20 -70 -19 0 -20 7 -20 90 l0
90 40 0 c33 0 40 -3 40 -20z m720 0 c0 -17 7 -20 44 -20 39 0 45 -3 48 -22 3
-21 9 -23 71 -26 59 -3 67 -5 67 -22 0 -18 -7 -20 -70 -20 -63 0 -70 2 -70 20
0 17 -7 20 -45 20 -41 0 -45 2 -45 25 0 18 -5 25 -20 25 -18 0 -20 -7 -20 -70
0 -63 -2 -70 -20 -70 -19 0 -20 7 -20 90 l0 90 40 0 c33 0 40 -3 40 -20z m720
0 c0 -17 7 -20 44 -20 39 0 45 -3 48 -22 3 -21 9 -23 71 -26 59 -3 67 -5 67
-22 0 -18 -7 -20 -70 -20 -63 0 -70 2 -70 20 0 17 -7 20 -45 20 -41 0 -45 2
-45 25 0 18 -5 25 -20 25 -18 0 -20 -7 -20 -70 0 -63 -2 -70 -20 -70 -19 0
-20 7 -20 90 l0 90 40 0 c33 0 40 -3 40 -20z m720 0 c0 -17 7 -20 44 -20 39 0
45 -3 48 -22 3 -21 9 -23 71 -26 59 -3 67 -5 67 -22 0 -18 -7 -20 -70 -20 -63
0 -70 2 -70 20 0 17 -7 20 -45 20 -41 0 -45 2 -45 25 0 18 -5 25 -20 25 -18 0
-20 -7 -20 -70 0 -68 -1 -70 -25 -70 -25 0 -25 1 -25 90 l0 90 45 0 c38 0 45
-3 45 -20z m720 0 c0 -17 7 -20 44 -20 39 0 45 -3 48 -22 3 -21 9 -23 71 -26
59 -3 67 -5 67 -22 0 -18 -7 -20 -70 -20 -63 0 -70 2 -70 20 0 17 -7 20 -45
20 -41 0 -45 2 -45 25 0 18 -5 25 -20 25 -18 0 -20 -7 -20 -70 0 -68 -1 -70
-25 -70 -25 0 -25 1 -25 90 l0 90 45 0 c38 0 45 -3 45 -20z m720 0 c0 -17 7
-20 44 -20 39 0 45 -3 48 -22 3 -21 9 -23 71 -26 59 -3 67 -5 67 -22 0 -18 -7
-20 -70 -20 -63 0 -70 2 -70 20 0 17 -7 20 -45 20 -41 0 -45 2 -45 25 0 18 -5
25 -20 25 -18 0 -20 -7 -20 -70 0 -68 -1 -70 -25 -70 -25 0 -25 1 -25 90 l0
90 45 0 c38 0 45 -3 45 -20z m720 0 c0 -17 7 -20 44 -20 39 0 45 -3 48 -22 3
-21 9 -23 71 -26 59 -3 67 -5 67 -22 0 -18 -7 -20 -70 -20 -63 0 -70 2 -70 20
0 17 -7 20 -45 20 -41 0 -45 2 -45 25 0 18 -5 25 -20 25 -18 0 -20 -7 -20 -70
0 -68 -1 -70 -25 -70 -25 0 -25 1 -25 90 l0 90 45 0 c38 0 45 -3 45 -20z m720
0 c0 -17 7 -20 44 -20 39 0 45 -3 48 -22 3 -21 9 -23 66 -26 54 -3 62 -6 62
-22 0 -18 -7 -20 -65 -20 -58 0 -65 2 -65 20 0 17 -7 20 -45 20 -41 0 -45 2
-45 25 0 18 -5 25 -20 25 -18 0 -20 -7 -20 -70 0 -68 -1 -70 -25 -70 -25 0
-25 1 -25 90 l0 90 45 0 c38 0 45 -3 45 -20z m720 0 c0 -17 7 -20 45 -20 41 0
45 -2 45 -25 0 -24 2 -25 65 -25 58 0 65 -2 65 -20 0 -18 -7 -20 -65 -20 -58
0 -65 2 -65 20 0 17 -7 20 -45 20 -41 0 -45 2 -45 25 0 18 -5 25 -20 25 -17 0
-19 -8 -22 -67 -3 -62 -5 -68 -25 -71 -22 -3 -23 -1 -23 87 l0 91 45 0 c38 0
45 -3 45 -20z m720 0 c0 -17 7 -20 45 -20 41 0 45 -2 45 -25 0 -24 2 -25 65
-25 58 0 65 -2 65 -20 0 -18 -7 -20 -65 -20 -58 0 -65 2 -65 20 0 17 -7 20
-45 20 -41 0 -45 2 -45 25 0 18 -5 25 -20 25 -17 0 -19 -8 -22 -67 -3 -62 -5
-68 -25 -71 -22 -3 -23 -1 -23 87 l0 91 45 0 c38 0 45 -3 45 -20z m720 0 c0
-17 7 -20 45 -20 41 0 45 -2 45 -25 0 -24 2 -25 65 -25 58 0 65 -2 65 -20 0
-18 -7 -20 -65 -20 -58 0 -65 2 -65 20 0 17 -7 20 -45 20 -41 0 -45 2 -45 25
0 18 -5 25 -20 25 -17 0 -19 -8 -22 -67 -3 -62 -5 -68 -25 -71 -22 -3 -23 -1
-23 87 l0 91 45 0 c38 0 45 -3 45 -20z m720 0 c0 -17 7 -20 45 -20 41 0 45 -2
45 -25 0 -24 2 -25 65 -25 58 0 65 -2 65 -20 0 -18 -7 -20 -65 -20 -58 0 -65
2 -65 20 0 17 -7 20 -45 20 -41 0 -45 2 -45 25 0 18 -5 25 -20 25 -17 0 -19
-8 -22 -67 -3 -62 -5 -68 -25 -71 -22 -3 -23 -1 -23 87 l0 91 45 0 c38 0 45
-3 45 -20z m720 0 c0 -17 7 -20 45 -20 41 0 45 -2 45 -25 0 -24 2 -25 65 -25
58 0 65 -2 65 -20 0 -18 -7 -20 -70 -20 -63 0 -70 2 -70 19 0 16 -8 20 -42 23
-36 2 -44 7 -46 26 -2 12 -10 22 -17 22 -10 0 -15 -18 -17 -67 -3 -62 -5 -68
-25 -71 -22 -3 -23 -1 -23 87 l0 91 45 0 c38 0 45 -3 45 -20z m720 0 c0 -17 7
-20 45 -20 41 0 45 -2 45 -25 0 -24 2 -25 65 -25 58 0 65 -2 65 -20 0 -18 -7
-20 -70 -20 -63 0 -70 2 -70 19 0 16 -8 20 -42 23 -36 2 -44 7 -46 26 -2 12
-10 22 -17 22 -10 0 -15 -18 -17 -67 -3 -62 -5 -68 -25 -71 -22 -3 -23 -1 -23
87 l0 91 45 0 c38 0 45 -3 45 -20z m720 0 c0 -17 7 -20 45 -20 41 0 45 -2 45
-25 0 -24 2 -25 65 -25 58 0 65 -2 65 -20 0 -18 -7 -20 -70 -20 -63 0 -70 2
-70 19 0 16 -8 20 -42 23 -36 2 -44 7 -46 26 -2 12 -10 22 -17 22 -10 0 -15
-18 -17 -67 -3 -62 -5 -68 -25 -71 -22 -3 -23 -1 -23 87 l0 91 45 0 c38 0 45
-3 45 -20z m720 0 c0 -17 7 -20 45 -20 41 0 45 -2 45 -25 0 -24 2 -25 65 -25
58 0 65 -2 65 -20 0 -18 -7 -20 -70 -20 -63 0 -70 2 -70 19 0 16 -8 20 -42 23
-36 2 -44 7 -46 26 -2 12 -10 22 -17 22 -10 0 -15 -18 -17 -67 -3 -62 -5 -68
-25 -71 -22 -3 -23 -1 -23 87 l0 91 45 0 c38 0 45 -3 45 -20z m720 0 c0 -17 7
-20 45 -20 41 0 45 -2 45 -25 0 -24 2 -25 65 -25 58 0 65 -2 65 -20 0 -18 -7
-20 -70 -20 -63 0 -70 2 -70 19 0 16 -8 20 -42 23 -36 2 -44 7 -46 26 -2 12
-10 22 -17 22 -10 0 -15 -18 -17 -67 -3 -62 -5 -68 -25 -71 -22 -3 -23 -1 -23
87 l0 91 45 0 c38 0 45 -3 45 -20z m710 0 c0 -17 7 -20 44 -20 39 0 45 -3 48
-22 3 -21 9 -23 71 -26 59 -3 67 -5 67 -22 0 -18 -7 -20 -70 -20 -63 0 -70 2
-70 20 0 17 -7 20 -45 20 -41 0 -45 2 -45 25 0 18 -5 25 -20 25 -18 0 -20 -7
-20 -70 0 -63 -2 -70 -20 -70 -19 0 -20 7 -20 90 l0 90 40 0 c33 0 40 -3 40
-20z m720 0 c0 -17 7 -20 44 -20 39 0 45 -3 48 -22 3 -21 9 -23 71 -26 59 -3
67 -5 67 -22 0 -18 -7 -20 -70 -20 -63 0 -70 2 -70 20 0 17 -7 20 -45 20 -41
0 -45 2 -45 25 0 18 -5 25 -20 25 -18 0 -20 -7 -20 -70 0 -63 -2 -70 -20 -70
-19 0 -20 7 -20 90 l0 90 40 0 c33 0 40 -3 40 -20z m720 0 c0 -17 7 -20 44
-20 39 0 45 -3 48 -22 3 -21 9 -23 71 -26 59 -3 67 -5 67 -22 0 -18 -7 -20
-70 -20 -63 0 -70 2 -70 20 0 17 -7 20 -45 20 -41 0 -45 2 -45 25 0 18 -5 25
-20 25 -18 0 -20 -7 -20 -70 0 -63 -2 -70 -20 -70 -19 0 -20 7 -20 90 l0 90
40 0 c33 0 40 -3 40 -20z m720 0 c0 -17 7 -20 44 -20 39 0 45 -3 48 -22 3 -21
9 -23 71 -26 59 -3 67 -5 67 -22 0 -18 -7 -20 -70 -20 -63 0 -70 2 -70 20 0
17 -7 20 -45 20 -41 0 -45 2 -45 25 0 18 -5 25 -20 25 -18 0 -20 -7 -20 -70 0
-63 -2 -70 -20 -70 -19 0 -20 7 -20 90 l0 90 40 0 c33 0 40 -3 40 -20z"/>
<path d="M8900 2140 c0 -15 -7 -20 -25 -20 -20 0 -25 -5 -25 -25 0 -23 -4 -25
-45 -25 -38 0 -45 -3 -45 -20 0 -13 -7 -20 -20 -20 -18 0 -20 -7 -20 -70 0
-68 -1 -70 -25 -70 -18 0 -25 -5 -25 -20 0 -13 -7 -20 -20 -20 -15 0 -20 -7
-20 -25 0 -24 -2 -25 -70 -25 -63 0 -70 -2 -70 -20 0 -13 -7 -20 -20 -20 -15
0 -20 -7 -20 -25 0 -20 -5 -25 -26 -25 -21 0 -25 -4 -22 -22 2 -15 11 -24 26
-26 18 -3 22 1 22 22 0 21 5 26 25 26 18 0 25 5 25 20 0 18 7 20 65 20 63 0
65 1 65 25 0 20 5 25 25 25 18 0 25 5 25 20 0 13 7 20 20 20 15 0 20 7 20 25
0 20 5 25 25 25 24 0 25 2 25 65 l0 65 45 0 c41 0 45 2 45 25 0 18 5 25 20 25
13 0 20 7 20 20 0 19 7 20 90 20 83 0 90 -1 90 -20 0 -15 7 -20 25 -20 23 0
25 -4 25 -45 0 -38 3 -45 20 -45 15 0 20 -7 20 -25 0 -20 5 -25 25 -25 20 0
25 5 25 25 0 18 5 25 20 25 15 0 20 -7 20 -25 0 -20 5 -25 25 -25 24 0 25 -2
25 -65 l0 -65 45 0 c38 0 45 3 45 20 0 13 7 20 20 20 15 0 20 7 20 25 0 20 5
25 25 25 24 0 25 2 25 65 l0 65 45 0 c41 0 45 2 45 25 0 18 5 25 20 25 13 0
20 7 20 20 0 19 7 20 90 20 83 0 90 -1 90 -20 0 -13 7 -20 20 -20 17 0 20 -7
20 -45 0 -41 2 -45 25 -45 20 0 25 -5 25 -26 0 -21 4 -25 23 -22 14 2 23 11
25 26 5 32 42 30 42 -3 0 -18 5 -25 20 -25 18 0 20 -7 20 -65 l0 -65 50 0 c43
0 50 3 50 20 0 13 7 20 20 20 15 0 20 7 20 25 0 20 5 25 25 25 24 0 25 2 25
64 l0 65 43 3 c35 2 43 7 45 26 2 14 10 22 23 22 12 0 19 7 19 20 0 19 7 20
90 20 83 0 90 -1 90 -20 0 -13 7 -20 20 -20 17 0 20 -7 20 -45 0 -41 2 -45 25
-45 20 0 25 -5 25 -26 0 -21 4 -25 23 -22 14 2 23 11 25 26 5 32 42 30 42 -3
0 -18 5 -25 20 -25 18 0 20 -7 20 -65 0 -63 1 -65 25 -65 23 0 25 -4 25 -45 0
-38 3 -45 19 -45 13 0 21 -8 23 -22 2 -15 11 -24 26 -26 18 -3 22 1 22 22 0
21 5 26 25 26 18 0 25 5 25 20 0 13 7 20 20 20 18 0 20 -7 20 -65 0 -58 2 -65
19 -65 13 0 21 -8 23 -22 2 -15 11 -24 26 -26 18 -3 22 1 22 22 0 19 5 26 20
26 18 0 20 -7 20 -65 0 -58 -2 -65 -20 -65 -15 0 -20 -7 -20 -25 0 -20 5 -25
25 -25 18 0 25 5 25 20 0 13 7 20 20 20 18 0 20 7 20 70 0 63 -2 70 -20 70
-15 0 -20 7 -20 25 0 20 -5 25 -25 25 -20 0 -25 -5 -25 -25 0 -18 -5 -25 -20
-25 -18 0 -20 7 -20 70 0 68 -1 70 -25 70 -18 0 -25 5 -25 20 0 15 -7 20 -25
20 -18 0 -25 -5 -25 -20 0 -13 -7 -20 -20 -20 -15 0 -20 -7 -20 -25 0 -18 -5
-25 -20 -25 -17 0 -20 7 -20 45 0 41 -2 45 -25 45 -24 0 -25 2 -25 70 0 63 -2
70 -20 70 -13 0 -20 7 -20 20 0 15 -7 20 -25 20 -20 0 -25 5 -25 25 0 20 -5
25 -25 25 -20 0 -25 -5 -25 -25 0 -18 -5 -25 -20 -25 -17 0 -20 7 -20 45 0 38
-3 45 -20 45 -15 0 -20 7 -20 25 0 20 -5 25 -25 25 -18 0 -25 5 -25 20 0 19
-7 20 -90 20 -83 0 -90 -1 -90 -20 0 -15 -7 -20 -25 -20 -20 0 -25 -5 -25 -25
0 -23 -4 -25 -45 -25 -38 0 -45 -3 -45 -20 0 -13 -7 -20 -20 -20 -18 0 -20 -7
-20 -70 0 -68 -1 -70 -25 -70 -18 0 -25 -5 -25 -20 0 -13 -7 -20 -20 -20 -17
0 -20 7 -20 45 0 38 -3 45 -20 45 -13 0 -20 7 -20 20 0 15 -7 20 -25 20 -20 0
-25 5 -25 25 0 20 -5 25 -25 25 -20 0 -25 -5 -25 -25 0 -18 -5 -25 -20 -25
-17 0 -20 7 -20 45 0 38 -3 45 -20 45 -15 0 -20 7 -20 25 0 20 -5 25 -25 25
-18 0 -25 5 -25 20 0 19 -7 20 -90 20 -83 0 -90 -1 -90 -20 0 -15 -7 -20 -25
-20 -20 0 -25 -5 -25 -25 0 -23 -4 -25 -45 -25 -38 0 -45 -3 -45 -20 0 -13 -7
-20 -20 -20 -18 0 -20 -7 -20 -70 0 -68 -1 -70 -25 -70 -18 0 -25 -5 -25 -20
0 -11 -7 -20 -15 -20 -11 0 -15 12 -15 45 0 41 -2 45 -25 45 -18 0 -25 5 -25
20 0 13 -7 20 -20 20 -15 0 -20 7 -20 25 0 21 -5 25 -30 25 -25 0 -30 -4 -30
-25 0 -16 -6 -25 -15 -25 -11 0 -15 12 -15 45 0 41 -2 45 -25 45 -20 0 -25 5
-25 25 0 18 -5 25 -20 25 -13 0 -20 7 -20 20 0 19 -7 20 -95 20 -88 0 -95 -1
-95 -20z"/>
<path d="M17530 2140 c0 -13 -7 -20 -20 -20 -15 0 -20 -7 -20 -25 0 -23 -4
-25 -45 -25 -38 0 -45 -3 -45 -20 0 -15 -7 -20 -25 -20 -24 0 -25 -2 -25 -70
0 -63 -2 -70 -20 -70 -13 0 -20 -7 -20 -20 0 -15 -7 -20 -25 -20 -20 0 -25 -5
-25 -25 0 -24 -2 -25 -65 -25 -58 0 -65 -2 -65 -20 0 -15 -7 -20 -25 -20 -20
0 -25 -5 -25 -25 0 -18 -5 -25 -20 -25 -15 0 -20 -7 -20 -26 0 -21 4 -25 23
-22 14 2 23 11 25 26 2 14 10 22 23 22 12 0 19 7 19 20 0 17 8 19 68 22 61 3
67 5 70 26 2 14 10 22 23 22 12 0 19 7 19 19 0 13 8 21 23 23 14 2 23 11 25
26 2 14 10 22 23 22 17 0 19 7 19 65 l0 65 45 0 c41 0 45 2 45 25 0 20 5 25
25 25 18 0 25 5 25 20 0 18 7 20 85 20 78 0 85 -2 85 -20 0 -15 7 -20 25 -20
23 0 25 -4 25 -45 0 -38 3 -45 19 -45 13 0 21 -8 23 -22 2 -15 11 -24 26 -26
18 -3 22 1 22 22 0 34 37 37 42 4 2 -15 11 -24 26 -26 20 -3 22 -9 22 -68 0
-57 2 -64 20 -64 17 0 20 -7 20 -45 0 -41 2 -45 25 -45 20 0 25 -5 25 -26 0
-21 4 -25 23 -22 14 2 23 11 25 26 2 14 10 22 23 22 12 0 19 7 19 20 0 13 7
20 20 20 18 0 20 -7 20 -65 0 -63 1 -65 25 -65 20 0 25 -5 25 -26 0 -21 4 -25
23 -22 14 2 23 11 25 26 2 14 10 22 23 22 17 0 19 -7 19 -64 0 -59 -2 -65 -22
-68 -15 -2 -24 -11 -26 -25 -3 -19 1 -23 22 -23 19 0 26 5 26 20 0 15 7 20 25
20 24 0 25 2 25 70 0 68 -1 70 -25 70 -20 0 -25 5 -25 25 0 20 -5 25 -25 25
-20 0 -25 -5 -25 -25 0 -18 -5 -25 -20 -25 -18 0 -20 7 -20 70 0 63 -2 70 -20
70 -13 0 -20 7 -20 20 0 15 -7 20 -25 20 -18 0 -25 -5 -25 -20 0 -15 -7 -20
-25 -20 -20 0 -25 -5 -25 -25 0 -18 -5 -25 -20 -25 -17 0 -20 7 -20 45 0 38
-3 45 -20 45 -18 0 -20 7 -20 70 0 68 -1 70 -25 70 -18 0 -25 5 -25 20 0 13
-7 20 -20 20 -15 0 -20 7 -20 25 0 20 -5 25 -25 25 -20 0 -25 -5 -25 -25 0
-18 -5 -25 -20 -25 -17 0 -20 7 -20 45 0 41 -2 45 -25 45 -20 0 -25 5 -25 25
0 18 -5 25 -20 25 -13 0 -20 7 -20 20 0 19 -7 20 -95 20 -88 0 -95 -1 -95 -20z"/>
<path d="M15060 2095 c0 -18 -5 -25 -20 -25 -13 0 -20 -7 -20 -20 0 -15 -7
-20 -25 -20 -20 0 -25 -5 -25 -25 0 -18 -5 -25 -20 -25 -13 0 -20 -7 -20 -20
0 -15 -7 -20 -25 -20 -20 0 -25 -5 -25 -25 0 -18 -5 -25 -20 -25 -17 0 -20 -7
-20 -45 0 -41 -2 -45 -25 -45 -24 0 -25 -2 -25 -70 0 -68 1 -70 25 -70 18 0
25 -5 25 -20 0 -19 7 -20 90 -20 89 0 90 0 90 25 l0 25 135 0 135 0 0 -25 c0
-25 1 -25 90 -25 83 0 90 1 90 20 0 13 7 20 20 20 18 0 20 7 20 70 0 63 -2 70
-20 70 -17 0 -20 7 -20 45 0 41 -2 45 -25 45 -20 0 -25 5 -25 25 0 18 -5 25
-20 25 -13 0 -20 7 -20 20 0 15 -7 20 -25 20 -20 0 -25 5 -25 25 0 18 -5 25
-20 25 -13 0 -20 7 -20 20 0 15 -7 20 -25 20 -20 0 -25 5 -25 25 0 25 -1 25
-90 25 -89 0 -90 0 -90 -25z m-40 -275 c0 -63 2 -70 20 -70 15 0 20 7 20 25 0
20 5 25 25 25 23 0 25 -4 25 -45 l0 -45 -70 0 -70 0 0 90 c0 89 0 90 25 90 24
0 25 -2 25 -70z m310 -20 l0 -90 -65 0 -65 0 0 45 c0 38 3 45 20 45 15 0 20
-7 20 -25 0 -20 5 -25 25 -25 24 0 25 2 25 70 0 63 2 70 20 70 19 0 20 -7 20
-90z"/>
<path d="M9040 1910 c0 -13 7 -20 20 -20 13 0 20 7 20 20 0 13 -7 20 -20 20
-13 0 -20 -7 -20 -20z"/>
<path d="M9760 1910 c0 -13 7 -20 20 -20 13 0 20 -7 20 -20 0 -13 7 -20 20
-20 13 0 20 7 20 20 0 13 -7 20 -20 20 -13 0 -20 7 -20 20 0 13 -7 20 -20 20
-13 0 -20 -7 -20 -20z"/>
<path d="M10480 1910 c0 -13 7 -20 20 -20 13 0 20 -7 20 -20 0 -13 7 -20 20
-20 13 0 20 7 20 20 0 13 -7 20 -20 20 -13 0 -20 7 -20 20 0 13 -7 20 -20 20
-13 0 -20 -7 -20 -20z"/>
<path d="M17670 1910 c0 -13 7 -20 20 -20 13 0 20 7 20 20 0 13 -7 20 -20 20
-13 0 -20 -7 -20 -20z"/>
<path d="M8860 1870 c0 -17 7 -20 40 -20 33 0 40 3 40 20 0 17 -7 20 -40 20
-33 0 -40 -3 -40 -20z"/>
<path d="M9090 1870 c0 -11 7 -20 15 -20 8 0 15 9 15 20 0 11 -7 20 -15 20 -8
0 -15 -9 -15 -20z"/>
<path d="M9580 1870 c0 -17 7 -20 40 -20 33 0 40 3 40 20 0 17 -7 20 -40 20
-33 0 -40 -3 -40 -20z"/>
<path d="M10300 1870 c0 -17 7 -20 40 -20 33 0 40 3 40 20 0 17 -7 20 -40 20
-33 0 -40 -3 -40 -20z"/>
<path d="M17490 1870 c0 -17 7 -20 45 -20 38 0 45 3 45 20 0 17 -7 20 -45 20
-38 0 -45 -3 -45 -20z"/>
<path d="M17720 1870 c0 -13 7 -20 20 -20 13 0 20 7 20 20 0 13 -7 20 -20 20
-13 0 -20 -7 -20 -20z"/>
<path d="M8820 1820 c0 -11 7 -20 15 -20 8 0 15 9 15 20 0 11 -7 20 -15 20 -8
0 -15 -9 -15 -20z"/>
<path d="M9540 1820 c0 -11 7 -20 15 -20 8 0 15 9 15 20 0 11 -7 20 -15 20 -8
0 -15 -9 -15 -20z"/>
<path d="M10250 1820 c0 -13 7 -20 20 -20 13 0 20 7 20 20 0 13 -7 20 -20 20
-13 0 -20 -7 -20 -20z"/>
<path d="M17450 1820 c0 -13 7 -20 20 -20 13 0 20 7 20 20 0 13 -7 20 -20 20
-13 0 -20 -7 -20 -20z"/>
<path d="M15330 1555 c0 -23 -4 -25 -45 -25 -38 0 -45 -3 -45 -20 0 -13 -7
-20 -20 -20 -15 0 -20 -7 -20 -25 l0 -25 135 0 135 0 0 45 c0 38 -3 45 -20 45
-15 0 -20 7 -20 25 0 23 -3 25 -50 25 -47 0 -50 -2 -50 -25z"/>
<path d="M14920 1485 l0 -45 70 0 c68 0 70 1 70 25 0 18 -5 25 -20 25 -13 0
-20 7 -20 20 0 17 -7 20 -50 20 l-50 0 0 -45z"/>
</g>
</svg>
